<svg width="1286" height="524" viewBox="0 0 1286 524" fill="none" xmlns="http://www.w3.org/2000/svg">
<rect x="1" width="1283" height="524" fill="white"/>
<rect width="441" height="524" fill="#B6B6B6"/>
<path d="M518.752 314V311.927H510.803V308.06H517.688V305.965H510.803V302.162H518.655V300.1H508.676V314H518.752ZM519.977 316.6H521.91V314H530.751V316.6H532.685V312.109H530.977V303.043H522.587V303.591C522.587 307.104 522.297 309.961 521.266 312.109H519.977V316.6ZM523.382 312.109C524.23 310.337 524.66 308.178 524.66 305.621V304.912H528.796V312.109H523.382ZM535.864 314L542.943 307.007V314H545.231V303.043H544.426L537.336 310.036V303.043H535.048V314H535.864ZM550.463 314V309.445H555.898V314H558.187V303.043H555.898V307.598H550.463V303.043H548.175V314H550.463ZM560.496 308.586C560.464 312.152 563.031 314.44 566.297 314.376C567.468 314.376 568.521 314.183 569.444 313.785V311.862C568.606 312.238 567.661 312.421 566.608 312.421C565.48 312.421 564.567 312.077 563.88 311.4C563.192 310.724 562.849 309.757 562.849 308.5C562.849 305.933 564.181 304.611 566.673 304.611C567.586 304.611 568.467 304.751 569.315 305.041V303.15C568.488 302.828 567.521 302.667 566.415 302.667C564.6 302.667 563.16 303.204 562.097 304.278C561.033 305.353 560.496 306.792 560.496 308.586ZM574.794 304.912V314H577.082V304.912H580.627V303.043H571.249V304.912H574.794ZM582.636 314.043C583.753 314.118 585.354 314.15 587.438 314.15C591.229 314.15 592.519 312.775 592.519 311.035C592.519 309.671 591.767 308.747 590.273 308.285C591.466 307.662 592.057 306.749 592.057 305.557C592.057 304.697 591.713 304.042 591.197 303.655C590.939 303.462 590.617 303.301 590.23 303.183C589.446 302.946 588.694 302.893 587.695 302.893C585.568 302.893 583.882 302.936 582.636 303.021V314.043ZM584.902 309.23H587.878C589.414 309.23 590.188 309.725 590.188 310.724C590.188 311.712 589.425 312.281 587.921 312.281H584.902V309.23ZM584.902 304.611H587.48C589.188 304.611 589.79 305.105 589.79 306.04C589.79 306.985 589.049 307.598 587.631 307.598H584.902V304.611ZM594.441 308.479C594.441 310.154 594.925 311.572 595.902 312.646C596.88 313.731 598.523 314.376 600.597 314.376C601.284 314.376 601.993 314.312 602.713 314.193C603.433 314.075 604.013 313.893 604.475 313.667V311.798C603.433 312.26 602.272 312.485 600.994 312.485C600.006 312.485 599.146 312.292 598.352 311.862C597.557 311.433 596.977 310.616 596.815 309.531H605.259C605.323 308.876 605.355 308.35 605.355 307.952C605.355 306.48 604.958 305.234 604.142 304.246C603.325 303.258 601.918 302.667 600.113 302.667C598.642 302.667 597.245 303.215 596.182 304.171C595.118 305.127 594.441 306.674 594.441 308.479ZM596.772 307.791C596.891 305.771 598.126 304.558 600.113 304.558C600.994 304.558 601.714 304.837 602.272 305.406C602.831 305.976 603.11 306.771 603.11 307.791H596.772ZM610.146 314V309.445H615.582V314H617.87V303.043H615.582V307.598H610.146V303.043H607.858V314H610.146ZM623.102 314V309.445H628.537V314H630.825V303.043H628.537V307.598H623.102V303.043H620.813V314H623.102ZM633.135 310.681C633.135 311.83 633.64 312.797 634.413 313.366C635.187 313.936 636.143 314.247 637.12 314.247C638.882 314.247 640.268 313.699 641.385 312.281L641.643 314H643.168V307.071C643.168 305.664 642.76 304.59 642.147 303.945C641.836 303.634 641.46 303.376 640.998 303.172C640.085 302.785 639.183 302.667 638.012 302.667C636.809 302.667 635.573 302.893 634.295 303.333V305.31C635.229 304.848 636.39 304.611 637.775 304.611C639.87 304.611 640.923 305.299 640.923 306.674V307.662C640.396 307.458 639.838 307.286 639.236 307.168C638.624 307.05 638.108 306.985 637.668 306.985C636.422 306.985 635.369 307.243 634.51 307.802C633.65 308.36 633.135 309.359 633.135 310.681ZM635.487 310.434C635.487 309.273 636.304 308.693 637.926 308.693C639.032 308.693 640.031 308.973 640.923 309.531V310.434C640.568 311.067 640.117 311.562 639.548 311.927C638.979 312.303 638.398 312.485 637.797 312.485C636.261 312.485 635.487 311.798 635.487 310.434ZM645.51 306.921C645.628 308.629 646.434 309.789 647.927 310.391L645.746 314H648.432L650.172 310.831H650.505C651.504 310.831 652.363 310.756 653.072 310.595V314H655.36V303.043H649.71C648.356 303.043 647.314 303.387 646.595 304.085C645.875 304.783 645.51 305.729 645.51 306.921ZM647.862 306.964C647.862 305.557 648.872 304.762 650.419 304.762H653.072V309.005C652.299 309.155 651.644 309.23 651.096 309.23C649.13 309.23 647.862 308.511 647.862 306.964ZM666.973 314V304.912H672.215V303.043H664.685V314H666.973ZM672.924 308.586C672.924 310.144 673.418 311.54 674.353 312.604C675.287 313.678 676.855 314.365 678.757 314.376C680.54 314.376 681.958 313.817 683.011 312.711C684.053 311.604 684.579 310.187 684.579 308.457C684.579 306.899 684.085 305.503 683.15 304.429C682.216 303.365 680.658 302.678 678.757 302.667C676.974 302.667 675.556 303.226 674.503 304.332C673.45 305.438 672.924 306.856 672.924 308.586ZM675.276 308.414C675.276 307.458 675.502 306.599 676.018 305.825C676.533 305.052 677.5 304.558 678.757 304.558C681.206 304.558 682.227 306.577 682.227 308.629C682.227 310.412 681.399 312.485 678.757 312.485C677.564 312.485 676.63 311.991 676.093 311.207C675.556 310.434 675.276 309.478 675.276 308.414ZM686.266 308.586C686.233 312.152 688.801 314.44 692.066 314.376C693.237 314.376 694.29 314.183 695.214 313.785V311.862C694.376 312.238 693.431 312.421 692.378 312.421C691.25 312.421 690.337 312.077 689.649 311.4C688.962 310.724 688.618 309.757 688.618 308.5C688.618 305.933 689.95 304.611 692.442 304.611C693.355 304.611 694.236 304.751 695.085 305.041V303.15C694.258 302.828 693.291 302.667 692.185 302.667C690.369 302.667 688.93 303.204 687.866 304.278C686.803 305.353 686.266 306.792 686.266 308.586ZM700.746 312.808L697.996 318.179H700.359L707.148 303.043H704.86L701.831 310.477L698.748 303.043H696.191L700.746 312.808ZM706.826 316.6H708.76V314H717.601V316.6H719.534V312.109H717.826V303.043H709.437V303.591C709.437 307.104 709.146 309.961 708.115 312.109H706.826V316.6ZM710.231 312.109C711.08 310.337 711.51 308.178 711.51 305.621V304.912H715.646V312.109H710.231ZM721.006 310.681C721.006 311.83 721.511 312.797 722.284 313.366C723.058 313.936 724.014 314.247 724.991 314.247C726.753 314.247 728.139 313.699 729.256 312.281L729.514 314H731.039V307.071C731.039 305.664 730.631 304.59 730.019 303.945C729.707 303.634 729.331 303.376 728.869 303.172C727.956 302.785 727.054 302.667 725.883 302.667C724.68 302.667 723.444 302.893 722.166 303.333V305.31C723.101 304.848 724.261 304.611 725.646 304.611C727.741 304.611 728.794 305.299 728.794 306.674V307.662C728.268 307.458 727.709 307.286 727.107 307.168C726.495 307.05 725.979 306.985 725.539 306.985C724.293 306.985 723.24 307.243 722.381 307.802C721.521 308.36 721.006 309.359 721.006 310.681ZM723.358 310.434C723.358 309.273 724.175 308.693 725.797 308.693C726.903 308.693 727.902 308.973 728.794 309.531V310.434C728.439 311.067 727.988 311.562 727.419 311.927C726.85 312.303 726.27 312.485 725.668 312.485C724.132 312.485 723.358 311.798 723.358 310.434ZM736.238 318.179V313.098C737.302 313.946 738.58 314.376 740.073 314.376C741.717 314.376 743.124 313.667 743.994 312.55C744.864 311.433 745.348 309.929 745.348 308.285C745.348 306.695 744.939 305.331 744.145 304.3C743.35 303.279 742.028 302.667 740.396 302.667C738.387 302.667 736.84 303.44 735.755 304.977V303.043H733.972V318.179H736.238ZM736.217 306.674C736.604 306.062 737.108 305.578 737.731 305.245C738.354 304.912 738.999 304.74 739.654 304.74C741.899 304.74 742.995 306.137 742.995 308.371C742.995 310.487 742.028 312.292 739.654 312.324C738.301 312.324 737.151 311.927 736.217 311.143V306.674ZM746.895 308.586C746.862 312.152 749.43 314.44 752.695 314.376C753.866 314.376 754.919 314.183 755.843 313.785V311.862C755.005 312.238 754.06 312.421 753.007 312.421C751.879 312.421 750.966 312.077 750.278 311.4C749.591 310.724 749.247 309.757 749.247 308.5C749.247 305.933 750.579 304.611 753.071 304.611C753.984 304.611 754.865 304.751 755.714 305.041V303.15C754.887 302.828 753.92 302.667 752.813 302.667C750.998 302.667 749.559 303.204 748.495 304.278C747.432 305.353 746.895 306.792 746.895 308.586ZM761.192 304.912V314H763.48V304.912H767.025V303.043H757.647V304.912H761.192ZM769.034 314.043C770.151 314.118 771.752 314.15 773.836 314.15C777.628 314.15 778.917 312.775 778.917 311.035C778.917 309.671 778.165 308.747 776.672 308.285C777.864 307.662 778.455 306.749 778.455 305.557C778.455 304.697 778.111 304.042 777.596 303.655C777.338 303.462 777.016 303.301 776.629 303.183C775.845 302.946 775.093 302.893 774.094 302.893C771.967 302.893 770.28 302.936 769.034 303.021V314.043ZM771.301 309.23H774.276C775.812 309.23 776.586 309.725 776.586 310.724C776.586 311.712 775.823 312.281 774.319 312.281H771.301V309.23ZM771.301 304.611H773.879C775.587 304.611 776.188 305.105 776.188 306.04C776.188 306.985 775.447 307.598 774.029 307.598H771.301V304.611ZM780.84 308.479C780.84 310.154 781.323 311.572 782.301 312.646C783.278 313.731 784.922 314.376 786.995 314.376C787.683 314.376 788.392 314.312 789.111 314.193C789.831 314.075 790.411 313.893 790.873 313.667V311.798C789.831 312.26 788.671 312.485 787.393 312.485C786.404 312.485 785.545 312.292 784.75 311.862C783.955 311.433 783.375 310.616 783.214 309.531H791.657C791.722 308.876 791.754 308.35 791.754 307.952C791.754 306.48 791.356 305.234 790.54 304.246C789.724 303.258 788.316 302.667 786.512 302.667C785.04 302.667 783.644 303.215 782.58 304.171C781.517 305.127 780.84 306.674 780.84 308.479ZM783.171 307.791C783.289 305.771 784.524 304.558 786.512 304.558C787.393 304.558 788.112 304.837 788.671 305.406C789.229 305.976 789.509 306.771 789.509 307.791H783.171ZM796.545 314V309.445H801.98V314H804.269V303.043H801.98V307.598H796.545V303.043H794.257V314H796.545ZM809.5 314V309.445H814.936V314H817.224V303.043H814.936V307.598H809.5V303.043H807.212V314H809.5ZM819.533 310.681C819.533 311.83 820.038 312.797 820.812 313.366C821.585 313.936 822.541 314.247 823.519 314.247C825.28 314.247 826.666 313.699 827.783 312.281L828.041 314H829.566V307.071C829.566 305.664 829.158 304.59 828.546 303.945C828.234 303.634 827.858 303.376 827.396 303.172C826.483 302.785 825.581 302.667 824.41 302.667C823.207 302.667 821.972 302.893 820.693 303.333V305.31C821.628 304.848 822.788 304.611 824.174 304.611C826.269 304.611 827.321 305.299 827.321 306.674V307.662C826.795 307.458 826.236 307.286 825.635 307.168C825.022 307.05 824.507 306.985 824.066 306.985C822.82 306.985 821.768 307.243 820.908 307.802C820.049 308.36 819.533 309.359 819.533 310.681ZM821.886 310.434C821.886 309.273 822.702 308.693 824.324 308.693C825.431 308.693 826.43 308.973 827.321 309.531V310.434C826.967 311.067 826.516 311.562 825.946 311.927C825.377 312.303 824.797 312.485 824.195 312.485C822.659 312.485 821.886 311.798 821.886 310.434ZM831.908 306.921C832.026 308.629 832.832 309.789 834.325 310.391L832.145 314H834.83L836.57 310.831H836.903C837.902 310.831 838.762 310.756 839.471 310.595V314H841.759V303.043H836.108C834.755 303.043 833.713 303.387 832.993 304.085C832.273 304.783 831.908 305.729 831.908 306.921ZM834.261 306.964C834.261 305.557 835.271 304.762 836.817 304.762H839.471V309.005C838.697 309.155 838.042 309.23 837.494 309.23C835.528 309.23 834.261 308.511 834.261 306.964ZM850.449 308.586C850.449 310.144 850.943 311.54 851.878 312.604C852.812 313.678 854.381 314.365 856.282 314.376C858.065 314.376 859.483 313.817 860.536 312.711C861.578 311.604 862.104 310.187 862.104 308.457C862.104 306.899 861.61 305.503 860.676 304.429C859.741 303.365 858.184 302.678 856.282 302.667C854.499 302.667 853.081 303.226 852.028 304.332C850.976 305.438 850.449 306.856 850.449 308.586ZM852.802 308.414C852.802 307.458 853.027 306.599 853.543 305.825C854.059 305.052 855.025 304.558 856.282 304.558C858.731 304.558 859.752 306.577 859.752 308.629C859.752 310.412 858.925 312.485 856.282 312.485C855.09 312.485 854.155 311.991 853.618 311.207C853.081 310.434 852.802 309.478 852.802 308.414ZM866.691 318.179V313.098C867.755 313.946 869.033 314.376 870.526 314.376C872.17 314.376 873.577 313.667 874.447 312.55C875.317 311.433 875.801 309.929 875.801 308.285C875.801 306.695 875.393 305.331 874.598 304.3C873.803 303.279 872.481 302.667 870.849 302.667C868.84 302.667 867.293 303.44 866.208 304.977V303.043H864.425V318.179H866.691ZM866.67 306.674C867.057 306.062 867.562 305.578 868.185 305.245C868.808 304.912 869.452 304.74 870.107 304.74C872.353 304.74 873.448 306.137 873.448 308.371C873.448 310.487 872.481 312.292 870.107 312.324C868.754 312.324 867.604 311.927 866.67 311.143V306.674ZM880.27 314V304.912H885.512V303.043H877.981V314H880.27ZM886.221 310.681C886.221 311.83 886.726 312.797 887.499 313.366C888.272 313.936 889.229 314.247 890.206 314.247C891.968 314.247 893.354 313.699 894.471 312.281L894.729 314H896.254V307.071C896.254 305.664 895.846 304.59 895.233 303.945C894.922 303.634 894.546 303.376 894.084 303.172C893.171 302.785 892.269 302.667 891.098 302.667C889.895 302.667 888.659 302.893 887.381 303.333V305.31C888.315 304.848 889.476 304.611 890.861 304.611C892.956 304.611 894.009 305.299 894.009 306.674V307.662C893.482 307.458 892.924 307.286 892.322 307.168C891.71 307.05 891.194 306.985 890.754 306.985C889.508 306.985 888.455 307.243 887.596 307.802C886.736 308.36 886.221 309.359 886.221 310.681ZM888.573 310.434C888.573 309.273 889.39 308.693 891.012 308.693C892.118 308.693 893.117 308.973 894.009 309.531V310.434C893.654 311.067 893.203 311.562 892.634 311.927C892.064 312.303 891.484 312.485 890.883 312.485C889.347 312.485 888.573 311.798 888.573 310.434ZM901.475 314V309.445H906.91V314H909.198V303.043H906.91V307.598H901.475V303.043H899.187V314H901.475ZM912.958 314L920.037 307.007V314H922.325V303.043H921.52L914.43 310.036V303.043H912.142V314H912.958ZM925.011 313.85C925.462 314.032 926.085 314.161 926.891 314.247C927.686 314.333 928.448 314.376 929.189 314.376C930.436 314.376 931.488 314.15 932.358 313.646C933.218 313.151 933.744 312.281 933.744 311.121C933.744 309.746 932.949 308.661 931.521 308.328C932.81 307.759 933.454 306.749 933.454 305.535C933.454 303.655 931.886 302.667 929.318 302.667C928.674 302.667 927.922 302.71 927.062 302.796C926.203 302.882 925.548 303 925.097 303.15V305.095C926.482 304.772 927.589 304.611 928.438 304.611C930.242 304.611 931.145 305.116 931.145 306.126C931.145 307.168 930.457 307.684 929.082 307.684H926.375V309.273H929.104C930.704 309.273 931.499 309.789 931.499 310.831C931.499 311.905 930.489 312.442 928.48 312.442C927.288 312.442 926.128 312.238 925.011 311.819V313.85ZM935.42 310.681C935.42 311.83 935.925 312.797 936.698 313.366C937.472 313.936 938.428 314.247 939.405 314.247C941.167 314.247 942.553 313.699 943.67 312.281L943.928 314H945.453V307.071C945.453 305.664 945.045 304.59 944.433 303.945C944.121 303.634 943.745 303.376 943.283 303.172C942.37 302.785 941.468 302.667 940.297 302.667C939.094 302.667 937.858 302.893 936.58 303.333V305.31C937.515 304.848 938.675 304.611 940.061 304.611C942.155 304.611 943.208 305.299 943.208 306.674V307.662C942.682 307.458 942.123 307.286 941.521 307.168C940.909 307.05 940.394 306.985 939.953 306.985C938.707 306.985 937.654 307.243 936.795 307.802C935.936 308.36 935.42 309.359 935.42 310.681ZM937.772 310.434C937.772 309.273 938.589 308.693 940.211 308.693C941.317 308.693 942.316 308.973 943.208 309.531V310.434C942.854 311.067 942.402 311.562 941.833 311.927C941.264 312.303 940.684 312.485 940.082 312.485C938.546 312.485 937.772 311.798 937.772 310.434ZM957.742 314V316.6H959.74V312.131H958.312V303.043H956.023V312.131H950.674V303.043H948.386V314H957.742ZM962.952 314L970.031 307.007V314H972.319V303.043H971.514L964.424 310.036V303.043H962.136V314H962.952ZM974.672 306.921C974.79 308.629 975.596 309.789 977.089 310.391L974.908 314H977.594L979.334 310.831H979.667C980.666 310.831 981.525 310.756 982.234 310.595V314H984.522V303.043H978.872C977.519 303.043 976.477 303.387 975.757 304.085C975.037 304.783 974.672 305.729 974.672 306.921ZM977.024 306.964C977.024 305.557 978.034 304.762 979.581 304.762H982.234V309.005C981.461 309.155 980.806 309.23 980.258 309.23C978.292 309.23 977.024 308.511 977.024 306.964ZM996.135 314V304.912H1001.48V314H1003.77V303.043H993.847V314H996.135ZM1006.08 308.586C1006.08 310.144 1006.58 311.54 1007.51 312.604C1008.45 313.678 1010.01 314.365 1011.92 314.376C1013.7 314.376 1015.12 313.817 1016.17 312.711C1017.21 311.604 1017.74 310.187 1017.74 308.457C1017.74 306.899 1017.24 305.503 1016.31 304.429C1015.37 303.365 1013.82 302.678 1011.92 302.667C1010.13 302.667 1008.71 303.226 1007.66 304.332C1006.61 305.438 1006.08 306.856 1006.08 308.586ZM1008.43 308.414C1008.43 307.458 1008.66 306.599 1009.18 305.825C1009.69 305.052 1010.66 304.558 1011.92 304.558C1014.36 304.558 1015.38 306.577 1015.38 308.629C1015.38 310.412 1014.56 312.485 1011.92 312.485C1010.72 312.485 1009.79 311.991 1009.25 311.207C1008.71 310.434 1008.43 309.478 1008.43 308.414ZM1026.18 313.85C1026.63 314.032 1027.25 314.161 1028.06 314.247C1028.86 314.333 1029.62 314.376 1030.36 314.376C1031.61 314.376 1032.66 314.15 1033.53 313.646C1034.39 313.151 1034.91 312.281 1034.91 311.121C1034.91 309.746 1034.12 308.661 1032.69 308.328C1033.98 307.759 1034.62 306.749 1034.62 305.535C1034.62 303.655 1033.06 302.667 1030.49 302.667C1029.84 302.667 1029.09 302.71 1028.23 302.796C1027.37 302.882 1026.72 303 1026.27 303.15V305.095C1027.65 304.772 1028.76 304.611 1029.61 304.611C1031.41 304.611 1032.31 305.116 1032.31 306.126C1032.31 307.168 1031.63 307.684 1030.25 307.684H1027.54V309.273H1030.27C1031.87 309.273 1032.67 309.789 1032.67 310.831C1032.67 311.905 1031.66 312.442 1029.65 312.442C1028.46 312.442 1027.3 312.238 1026.18 311.819V313.85ZM1036.59 310.681C1036.59 311.83 1037.09 312.797 1037.87 313.366C1038.64 313.936 1039.6 314.247 1040.58 314.247C1042.34 314.247 1043.72 313.699 1044.84 312.281L1045.1 314H1046.62V307.071C1046.62 305.664 1046.21 304.59 1045.6 303.945C1045.29 303.634 1044.92 303.376 1044.45 303.172C1043.54 302.785 1042.64 302.667 1041.47 302.667C1040.26 302.667 1039.03 302.893 1037.75 303.333V305.31C1038.68 304.848 1039.84 304.611 1041.23 304.611C1043.33 304.611 1044.38 305.299 1044.38 306.674V307.662C1043.85 307.458 1043.29 307.286 1042.69 307.168C1042.08 307.05 1041.56 306.985 1041.12 306.985C1039.88 306.985 1038.82 307.243 1037.96 307.802C1037.11 308.36 1036.59 309.359 1036.59 310.681ZM1038.94 310.434C1038.94 309.273 1039.76 308.693 1041.38 308.693C1042.49 308.693 1043.49 308.973 1044.38 309.531V310.434C1044.02 311.067 1043.57 311.562 1043 311.927C1042.43 312.303 1041.85 312.485 1041.25 312.485C1039.72 312.485 1038.94 311.798 1038.94 310.434ZM1064.78 314V316.6H1066.79V312.131H1065.36V303.043H1063.07V312.131H1058.6V303.043H1056.31V312.131H1051.84V303.043H1049.56V314H1064.78ZM1070.33 314L1077.41 307.007V314H1079.7V303.043H1078.89L1071.8 310.036V303.043H1069.51V314H1070.33ZM1085.26 304.912V314H1087.55V304.912H1091.1V303.043H1081.72V304.912H1085.26ZM1091.78 308.479C1091.78 310.154 1092.27 311.572 1093.24 312.646C1094.22 313.731 1095.87 314.376 1097.94 314.376C1098.63 314.376 1099.33 314.312 1100.05 314.193C1100.77 314.075 1101.35 313.893 1101.82 313.667V311.798C1100.77 312.26 1099.61 312.485 1098.34 312.485C1097.35 312.485 1096.49 312.292 1095.69 311.862C1094.9 311.433 1094.32 310.616 1094.16 309.531H1102.6C1102.67 308.876 1102.7 308.35 1102.7 307.952C1102.7 306.48 1102.3 305.234 1101.48 304.246C1100.67 303.258 1099.26 302.667 1097.46 302.667C1095.98 302.667 1094.59 303.215 1093.52 304.171C1092.46 305.127 1091.78 306.674 1091.78 308.479ZM1094.11 307.791C1094.23 305.771 1095.47 304.558 1097.46 304.558C1098.34 304.558 1099.06 304.837 1099.61 305.406C1100.17 305.976 1100.45 306.771 1100.45 307.791H1094.11ZM509.288 337L516.367 330.007V337H518.655V326.043H517.85L510.76 333.036V326.043H508.472V337H509.288ZM527.346 331.586C527.346 333.144 527.84 334.54 528.774 335.604C529.709 336.678 531.277 337.365 533.179 337.376C534.962 337.376 536.38 336.817 537.433 335.711C538.475 334.604 539.001 333.187 539.001 331.457C539.001 329.899 538.507 328.503 537.572 327.429C536.638 326.365 535.08 325.678 533.179 325.667C531.396 325.667 529.978 326.226 528.925 327.332C527.872 328.438 527.346 329.856 527.346 331.586ZM529.698 331.414C529.698 330.458 529.924 329.599 530.439 328.825C530.955 328.052 531.922 327.558 533.179 327.558C535.628 327.558 536.648 329.577 536.648 331.629C536.648 333.412 535.821 335.485 533.179 335.485C531.986 335.485 531.052 334.991 530.515 334.207C529.978 333.434 529.698 332.478 529.698 331.414ZM544.211 331.521L540.183 337H542.814L545.5 333.058L548.314 337H550.807L546.735 331.457L550.742 326.043H548.25L545.479 330.093L542.686 326.043H540.064L544.211 331.521ZM554.76 341.179V336.098C555.823 336.946 557.102 337.376 558.595 337.376C560.238 337.376 561.646 336.667 562.516 335.55C563.386 334.433 563.869 332.929 563.869 331.285C563.869 329.695 563.461 328.331 562.666 327.3C561.871 326.279 560.55 325.667 558.917 325.667C556.908 325.667 555.361 326.44 554.276 327.977V326.043H552.493V341.179H554.76ZM554.738 329.674C555.125 329.062 555.63 328.578 556.253 328.245C556.876 327.912 557.521 327.74 558.176 327.74C560.421 327.74 561.517 329.137 561.517 331.371C561.517 333.487 560.55 335.292 558.176 335.324C556.822 335.324 555.673 334.927 554.738 334.143V329.674ZM565.416 333.681C565.416 334.83 565.921 335.797 566.694 336.366C567.468 336.936 568.424 337.247 569.401 337.247C571.163 337.247 572.549 336.699 573.666 335.281L573.924 337H575.449V330.071C575.449 328.664 575.041 327.59 574.429 326.945C574.117 326.634 573.741 326.376 573.279 326.172C572.366 325.785 571.464 325.667 570.293 325.667C569.09 325.667 567.854 325.893 566.576 326.333V328.31C567.511 327.848 568.671 327.611 570.057 327.611C572.151 327.611 573.204 328.299 573.204 329.674V330.662C572.678 330.458 572.119 330.286 571.518 330.168C570.905 330.05 570.39 329.985 569.949 329.985C568.703 329.985 567.65 330.243 566.791 330.802C565.932 331.36 565.416 332.359 565.416 333.681ZM567.769 333.434C567.769 332.273 568.585 331.693 570.207 331.693C571.313 331.693 572.312 331.973 573.204 332.531V333.434C572.85 334.067 572.398 334.562 571.829 334.927C571.26 335.303 570.68 335.485 570.078 335.485C568.542 335.485 567.769 334.798 567.769 333.434ZM580.67 337V332.445H586.105V337H588.394V326.043H586.105V330.598H580.67V326.043H578.382V337H580.67ZM590.703 331.479C590.703 333.154 591.187 334.572 592.164 335.646C593.142 336.731 594.785 337.376 596.858 337.376C597.546 337.376 598.255 337.312 598.975 337.193C599.694 337.075 600.274 336.893 600.736 336.667V334.798C599.694 335.26 598.534 335.485 597.256 335.485C596.268 335.485 595.408 335.292 594.613 334.862C593.818 334.433 593.238 333.616 593.077 332.531H601.521C601.585 331.876 601.617 331.35 601.617 330.952C601.617 329.48 601.22 328.234 600.403 327.246C599.587 326.258 598.18 325.667 596.375 325.667C594.903 325.667 593.507 326.215 592.443 327.171C591.38 328.127 590.703 329.674 590.703 331.479ZM593.034 330.791C593.152 328.771 594.388 327.558 596.375 327.558C597.256 327.558 597.976 327.837 598.534 328.406C599.093 328.976 599.372 329.771 599.372 330.791H593.034ZM613.122 327.912V337H615.41V327.912H618.955V326.043H609.577V327.912H613.122ZM623.23 341.179V336.098C624.294 336.946 625.572 337.376 627.065 337.376C628.709 337.376 630.116 336.667 630.986 335.55C631.856 334.433 632.34 332.929 632.34 331.285C632.34 329.695 631.932 328.331 631.137 327.3C630.342 326.279 629.021 325.667 627.388 325.667C625.379 325.667 623.832 326.44 622.747 327.977V326.043H620.964V341.179H623.23ZM623.209 329.674C623.596 329.062 624.101 328.578 624.724 328.245C625.347 327.912 625.991 327.74 626.646 327.74C628.892 327.74 629.987 329.137 629.987 331.371C629.987 333.487 629.021 335.292 626.646 335.324C625.293 335.324 624.144 334.927 623.209 334.143V329.674ZM637.539 335.808L634.789 341.179H637.152L643.941 326.043H641.653L638.624 333.477L635.541 326.043H632.984L637.539 335.808ZM643.619 339.6H645.553V337H654.394V339.6H656.327V335.109H654.619V326.043H646.229V326.591C646.229 330.104 645.939 332.961 644.908 335.109H643.619V339.6ZM647.024 335.109C647.873 333.337 648.303 331.178 648.303 328.621V327.912H652.438V335.109H647.024ZM657.799 333.681C657.799 334.83 658.304 335.797 659.077 336.366C659.851 336.936 660.807 337.247 661.784 337.247C663.546 337.247 664.932 336.699 666.049 335.281L666.307 337H667.832V330.071C667.832 328.664 667.424 327.59 666.812 326.945C666.5 326.634 666.124 326.376 665.662 326.172C664.749 325.785 663.847 325.667 662.676 325.667C661.473 325.667 660.237 325.893 658.959 326.333V328.31C659.894 327.848 661.054 327.611 662.439 327.611C664.534 327.611 665.587 328.299 665.587 329.674V330.662C665.061 330.458 664.502 330.286 663.9 330.168C663.288 330.05 662.772 329.985 662.332 329.985C661.086 329.985 660.033 330.243 659.174 330.802C658.314 331.36 657.799 332.359 657.799 333.681ZM660.151 333.434C660.151 332.273 660.968 331.693 662.59 331.693C663.696 331.693 664.695 331.973 665.587 332.531V333.434C665.232 334.067 664.781 334.562 664.212 334.927C663.643 335.303 663.062 335.485 662.461 335.485C660.925 335.485 660.151 334.798 660.151 333.434ZM677.146 337.043C678.263 337.118 679.863 337.15 681.947 337.15C685.739 337.15 687.028 335.775 687.028 334.035C687.028 332.671 686.276 331.747 684.783 331.285C685.976 330.662 686.566 329.749 686.566 328.557C686.566 327.697 686.223 327.042 685.707 326.655C685.449 326.462 685.127 326.301 684.74 326.183C683.956 325.946 683.204 325.893 682.205 325.893C680.078 325.893 678.392 325.936 677.146 326.021V337.043ZM679.412 332.23H682.388C683.924 332.23 684.697 332.725 684.697 333.724C684.697 334.712 683.935 335.281 682.431 335.281H679.412V332.23ZM679.412 327.611H681.99C683.698 327.611 684.3 328.105 684.3 329.04C684.3 329.985 683.559 330.598 682.141 330.598H679.412V327.611ZM698.039 337V327.912H703.281V326.043H695.751V337H698.039ZM703.99 331.586C703.99 333.144 704.484 334.54 705.419 335.604C706.354 336.678 707.922 337.365 709.823 337.376C711.606 337.376 713.024 336.817 714.077 335.711C715.119 334.604 715.646 333.187 715.646 331.457C715.646 329.899 715.151 328.503 714.217 327.429C713.282 326.365 711.725 325.678 709.823 325.667C708.04 325.667 706.622 326.226 705.569 327.332C704.517 328.438 703.99 329.856 703.99 331.586ZM706.343 331.414C706.343 330.458 706.568 329.599 707.084 328.825C707.6 328.052 708.566 327.558 709.823 327.558C712.272 327.558 713.293 329.577 713.293 331.629C713.293 333.412 712.466 335.485 709.823 335.485C708.631 335.485 707.696 334.991 707.159 334.207C706.622 333.434 706.343 332.478 706.343 331.414ZM720.232 341.179V336.098C721.296 336.946 722.574 337.376 724.067 337.376C725.711 337.376 727.118 336.667 727.988 335.55C728.858 334.433 729.342 332.929 729.342 331.285C729.342 329.695 728.934 328.331 728.139 327.3C727.344 326.279 726.022 325.667 724.39 325.667C722.381 325.667 720.834 326.44 719.749 327.977V326.043H717.966V341.179H720.232ZM720.211 329.674C720.598 329.062 721.103 328.578 721.726 328.245C722.349 327.912 722.993 327.74 723.648 327.74C725.894 327.74 726.989 329.137 726.989 331.371C726.989 333.487 726.022 335.292 723.648 335.324C722.295 335.324 721.146 334.927 720.211 334.143V329.674ZM731.146 331.586C731.146 333.144 731.641 334.54 732.575 335.604C733.51 336.678 735.078 337.365 736.979 337.376C738.763 337.376 740.181 336.817 741.233 335.711C742.275 334.604 742.802 333.187 742.802 331.457C742.802 329.899 742.308 328.503 741.373 327.429C740.438 326.365 738.881 325.678 736.979 325.667C735.196 325.667 733.778 326.226 732.726 327.332C731.673 328.438 731.146 329.856 731.146 331.586ZM733.499 331.414C733.499 330.458 733.725 329.599 734.24 328.825C734.756 328.052 735.723 327.558 736.979 327.558C739.429 327.558 740.449 329.577 740.449 331.629C740.449 333.412 739.622 335.485 736.979 335.485C735.787 335.485 734.853 334.991 734.315 334.207C733.778 333.434 733.499 332.478 733.499 331.414ZM743.672 339.6H745.605V337H754.446V339.6H756.38V335.109H754.672V326.043H746.282V326.591C746.282 330.104 745.992 332.961 744.961 335.109H743.672V339.6ZM747.077 335.109C747.926 333.337 748.355 331.178 748.355 328.621V327.912H752.491V335.109H747.077ZM757.637 331.479C757.637 333.154 758.12 334.572 759.098 335.646C760.075 336.731 761.719 337.376 763.792 337.376C764.479 337.376 765.188 337.312 765.908 337.193C766.628 337.075 767.208 336.893 767.67 336.667V334.798C766.628 335.26 765.468 335.485 764.189 335.485C763.201 335.485 762.342 335.292 761.547 334.862C760.752 334.433 760.172 333.616 760.011 332.531H768.454C768.519 331.876 768.551 331.35 768.551 330.952C768.551 329.48 768.153 328.234 767.337 327.246C766.521 326.258 765.113 325.667 763.309 325.667C761.837 325.667 760.44 326.215 759.377 327.171C758.313 328.127 757.637 329.674 757.637 331.479ZM759.968 330.791C760.086 328.771 761.321 327.558 763.309 327.558C764.189 327.558 764.909 327.837 765.468 328.406C766.026 328.976 766.306 329.771 766.306 330.791H759.968ZM779.422 337L780.732 328.181L785.749 336.667L790.594 328.181L792.151 337H794.504L791.958 323.1H791.292L785.749 332.778L780.163 323.1H779.508L777.059 337H779.422ZM796.352 331.586C796.352 333.144 796.846 334.54 797.78 335.604C798.715 336.678 800.283 337.365 802.185 337.376C803.968 337.376 805.386 336.817 806.438 335.711C807.48 334.604 808.007 333.187 808.007 331.457C808.007 329.899 807.513 328.503 806.578 327.429C805.644 326.365 804.086 325.678 802.185 325.667C800.401 325.667 798.983 326.226 797.931 327.332C796.878 328.438 796.352 329.856 796.352 331.586ZM798.704 331.414C798.704 330.458 798.93 329.599 799.445 328.825C799.961 328.052 800.928 327.558 802.185 327.558C804.634 327.558 805.654 329.577 805.654 331.629C805.654 333.412 804.827 335.485 802.185 335.485C800.992 335.485 800.058 334.991 799.521 334.207C798.983 333.434 798.704 332.478 798.704 331.414ZM809.693 331.586C809.661 335.152 812.229 337.44 815.494 337.376C816.665 337.376 817.718 337.183 818.642 336.785V334.862C817.804 335.238 816.858 335.421 815.806 335.421C814.678 335.421 813.765 335.077 813.077 334.4C812.39 333.724 812.046 332.757 812.046 331.5C812.046 328.933 813.378 327.611 815.87 327.611C816.783 327.611 817.664 327.751 818.513 328.041V326.15C817.686 325.828 816.719 325.667 815.612 325.667C813.797 325.667 812.357 326.204 811.294 327.278C810.23 328.353 809.693 329.792 809.693 331.586ZM823.186 337V332.467H825.055L828.514 337H831.371L826.902 331.307L830.974 326.043H828.245L824.947 330.555H823.186V326.043H820.897V337H823.186ZM832.886 337.043C834.003 337.118 835.604 337.15 837.688 337.15C841.479 337.15 842.769 335.775 842.769 334.035C842.769 332.671 842.017 331.747 840.523 331.285C841.716 330.662 842.307 329.749 842.307 328.557C842.307 327.697 841.963 327.042 841.447 326.655C841.189 326.462 840.867 326.301 840.48 326.183C839.696 325.946 838.944 325.893 837.945 325.893C835.818 325.893 834.132 325.936 832.886 326.021V337.043ZM835.152 332.23H838.128C839.664 332.23 840.438 332.725 840.438 333.724C840.438 334.712 839.675 335.281 838.171 335.281H835.152V332.23ZM835.152 327.611H837.73C839.438 327.611 840.04 328.105 840.04 329.04C840.04 329.985 839.299 330.598 837.881 330.598H835.152V327.611ZM844.691 331.479C844.691 333.154 845.175 334.572 846.152 335.646C847.13 336.731 848.773 337.376 850.847 337.376C851.534 337.376 852.243 337.312 852.963 337.193C853.683 337.075 854.263 336.893 854.725 336.667V334.798C853.683 335.26 852.522 335.485 851.244 335.485C850.256 335.485 849.396 335.292 848.602 334.862C847.807 334.433 847.227 333.616 847.065 332.531H855.509C855.573 331.876 855.605 331.35 855.605 330.952C855.605 329.48 855.208 328.234 854.392 327.246C853.575 326.258 852.168 325.667 850.363 325.667C848.892 325.667 847.495 326.215 846.432 327.171C845.368 328.127 844.691 329.674 844.691 331.479ZM847.022 330.791C847.141 328.771 848.376 327.558 850.363 327.558C851.244 327.558 851.964 327.837 852.522 328.406C853.081 328.976 853.36 329.771 853.36 330.791H847.022ZM857.432 335.765C857.432 336.807 858.119 337.397 859.011 337.397C859.881 337.397 860.558 336.807 860.558 335.765C860.558 334.69 859.881 334.1 859.011 334.1C858.108 334.1 857.432 334.69 857.432 335.765ZM858.216 331.833H859.72L860.482 323.1H857.496L858.216 331.833Z" fill="#434442"/>
<path d="M515.284 125L517.657 110.234L527.303 125.264L536.751 110.234L539.366 125H545.43L540.311 96.5674H538.816L527.303 115.046L515.855 96.5674H514.339L509.241 125H515.284ZM548.792 110.916C548.814 115.244 550.396 119.045 553.011 121.66C555.625 124.275 559.493 125.813 563.909 125.813C568.414 125.813 572.039 124.429 574.786 121.66C577.532 118.914 578.938 115.332 578.982 110.916C578.938 106.499 577.532 102.917 574.786 100.171C572.039 97.4243 568.414 96.062 563.909 96.062C559.449 96.062 555.823 97.4243 553.033 100.171C550.242 102.917 548.836 106.499 548.792 110.916ZM557.669 104.17C559.295 102.478 561.382 101.643 563.909 101.643C566.436 101.643 568.523 102.478 570.171 104.17C571.819 105.862 572.632 108.103 572.632 110.916C572.632 113.728 571.819 115.969 570.193 117.639C568.545 119.309 566.458 120.144 563.909 120.144C561.382 120.144 559.295 119.309 557.669 117.639C556.043 115.969 555.23 113.728 555.23 110.916C555.23 108.103 556.043 105.862 557.669 104.17ZM582.806 111.003C582.806 113.794 583.421 116.299 584.673 118.54C585.904 120.803 587.662 122.561 589.947 123.857C592.21 125.176 594.803 125.813 597.703 125.813C601.241 125.813 604.361 125.088 607.063 123.616V117.397C604.537 119.111 601.702 119.968 598.516 119.968C596.011 119.968 593.902 119.177 592.188 117.595C590.452 116.013 589.551 113.816 589.463 111.003C589.463 108.169 590.32 105.928 592.034 104.324C593.726 102.72 596.033 101.907 598.912 101.907C601.922 101.907 604.581 102.5 606.844 103.708V97.8638C604.031 96.6553 601.219 96.062 598.428 96.062C593.748 96.062 589.969 97.4243 587.112 100.171C584.234 102.917 582.806 106.521 582.806 111.003ZM617.918 125V113.025H619.412L629.805 125H637.715L624.576 110.278L636.331 96.5674H629.212L619.324 108.389H617.918V96.5674H611.854V125H617.918ZM636.463 110.916C636.485 115.244 638.067 119.045 640.682 121.66C643.296 124.275 647.164 125.813 651.58 125.813C656.084 125.813 659.71 124.429 662.457 121.66C665.203 118.914 666.609 115.332 666.653 110.916C666.609 106.499 665.203 102.917 662.457 100.171C659.71 97.4243 656.084 96.062 651.58 96.062C647.12 96.062 643.494 97.4243 640.704 100.171C637.913 102.917 636.507 106.499 636.463 110.916ZM645.34 104.17C646.966 102.478 649.053 101.643 651.58 101.643C654.107 101.643 656.194 102.478 657.842 104.17C659.49 105.862 660.303 108.103 660.303 110.916C660.303 113.728 659.49 115.969 657.864 117.639C656.216 119.309 654.129 120.144 651.58 120.144C649.053 120.144 646.966 119.309 645.34 117.639C643.714 115.969 642.901 113.728 642.901 110.916C642.901 108.103 643.714 105.862 645.34 104.17ZM671.883 124.912C674.366 125.066 677.618 125.132 681.639 125.132C685.616 125.132 688.758 124.407 691.065 122.935C693.372 121.462 694.515 119.353 694.515 116.584C694.515 113.091 692.757 110.85 689.241 109.883C691.966 108.674 693.438 106.389 693.438 103.401C693.438 98.9844 689.615 96.3257 681.946 96.3257C679.134 96.3257 675.772 96.4136 671.883 96.5674V124.912ZM677.947 112.849H682.144C686.165 112.849 688.165 114.014 688.165 116.365C688.165 119.023 686.077 120.276 681.858 120.276C681.045 120.276 679.727 120.21 677.947 120.1V112.849ZM677.947 101.292C679.375 101.226 680.606 101.204 681.639 101.204C685.066 101.204 687.044 102.346 687.044 104.521C687.044 106.917 685.022 108.213 681.946 108.213H677.947V101.292ZM698.338 111.003C698.338 113.794 698.953 116.299 700.206 118.54C701.436 120.803 703.194 122.561 705.479 123.857C707.742 125.176 710.335 125.813 713.235 125.813C716.773 125.813 719.893 125.088 722.596 123.616V117.397C720.069 119.111 717.234 119.968 714.048 119.968C711.543 119.968 709.434 119.177 707.72 117.595C705.984 116.013 705.083 113.816 704.996 111.003C704.996 108.169 705.853 105.928 707.566 104.324C709.258 102.72 711.565 101.907 714.444 101.907C717.454 101.907 720.113 102.5 722.376 103.708V97.8638C719.563 96.6553 716.751 96.062 713.96 96.062C709.28 96.062 705.501 97.4243 702.645 100.171C699.766 102.917 698.338 106.521 698.338 111.003ZM733.45 125V113.025H734.944L745.337 125H753.248L740.108 110.278L751.863 96.5674H744.744L734.856 108.389H733.45V96.5674H727.386V125H733.45ZM757.532 125L774.715 108.037V125H780.516V96.5674H778.626L761.312 113.486V96.5674H755.511V125H757.532ZM789.393 125L806.575 108.037V125H812.376V96.5674H810.486L793.172 113.486V96.5674H787.371V125H789.393ZM792.007 87.3828C792.029 89.7998 792.82 91.7334 794.424 93.1836C796.006 94.6558 798.028 95.3809 800.511 95.3809C803.016 95.3809 805.059 94.6558 806.663 93.1836C808.245 91.7334 809.036 89.7998 809.058 87.3828H804.004C804.004 89.5581 802.708 90.8105 800.511 90.8105C798.335 90.8105 797.039 89.5142 797.039 87.3828H792.007ZM516.448 172V148.951H530.137V143.567H510.428V172H516.448ZM531.17 157.916C531.192 162.244 532.774 166.045 535.389 168.66C538.003 171.275 541.871 172.813 546.287 172.813C550.792 172.813 554.417 171.429 557.164 168.66C559.91 165.914 561.316 162.332 561.36 157.916C561.316 153.499 559.91 149.917 557.164 147.171C554.417 144.424 550.792 143.062 546.287 143.062C541.827 143.062 538.201 144.424 535.411 147.171C532.62 149.917 531.214 153.499 531.17 157.916ZM540.047 151.17C541.673 149.478 543.76 148.643 546.287 148.643C548.814 148.643 550.901 149.478 552.549 151.17C554.197 152.862 555.01 155.103 555.01 157.916C555.01 160.728 554.197 162.969 552.571 164.639C550.923 166.309 548.836 167.144 546.287 167.144C543.76 167.144 541.673 166.309 540.047 164.639C538.421 162.969 537.608 160.728 537.608 157.916C537.608 155.103 538.421 152.862 540.047 151.17ZM572.654 172V163.453C573.841 163.716 575.489 163.848 577.598 163.848C583.487 163.848 589.266 161.102 589.266 153.631C589.266 150.796 588.453 148.423 586.695 146.556C584.937 144.688 581.839 143.567 577.796 143.567H566.59V172H572.654ZM572.654 148.863H577.422C579.466 148.863 580.894 149.28 581.707 150.093C582.52 150.928 582.916 152.071 582.916 153.499C582.916 157.125 580.521 158.729 576.741 158.729C574.874 158.729 573.511 158.641 572.654 158.465V148.863ZM591.946 157.916C591.968 162.244 593.55 166.045 596.165 168.66C598.78 171.275 602.647 172.813 607.063 172.813C611.568 172.813 615.193 171.429 617.94 168.66C620.687 165.914 622.093 162.332 622.137 157.916C622.093 153.499 620.687 149.917 617.94 147.171C615.193 144.424 611.568 143.062 607.063 143.062C602.603 143.062 598.978 144.424 596.187 147.171C593.396 149.917 591.99 153.499 591.946 157.916ZM600.823 151.17C602.449 149.478 604.537 148.643 607.063 148.643C609.59 148.643 611.678 149.478 613.326 151.17C614.974 152.862 615.787 155.103 615.787 157.916C615.787 160.728 614.974 162.969 613.348 164.639C611.7 166.309 609.612 167.144 607.063 167.144C604.537 167.144 602.449 166.309 600.823 164.639C599.197 162.969 598.384 160.728 598.384 157.916C598.384 155.103 599.197 152.862 600.823 151.17ZM630.333 177.317V172H648.658V177.317H654.371V166.595H651.031V143.567H630.508V146.797C630.508 151.521 630.267 155.345 629.761 158.267C629.256 161.189 628.421 163.98 627.278 166.595H624.62V177.317H630.333ZM633.584 166.595C635.386 162.31 636.287 157.454 636.287 152.027V148.951H645.01V166.595H633.584ZM657.952 158.003C657.952 160.794 658.567 163.299 659.82 165.54C661.05 167.803 662.808 169.561 665.093 170.857C667.356 172.176 669.949 172.813 672.85 172.813C676.387 172.813 679.507 172.088 682.21 170.616V164.397C679.683 166.111 676.849 166.968 673.663 166.968C671.158 166.968 669.048 166.177 667.334 164.595C665.599 163.013 664.698 160.816 664.61 158.003C664.61 155.169 665.467 152.928 667.181 151.324C668.873 149.72 671.18 148.907 674.058 148.907C677.068 148.907 679.727 149.5 681.99 150.708V144.864C679.178 143.655 676.365 143.062 673.575 143.062C668.895 143.062 665.115 144.424 662.259 147.171C659.38 149.917 657.952 153.521 657.952 158.003ZM693.064 172V160.025H694.559L704.952 172H712.862L699.722 157.278L711.478 143.567H704.358L694.471 155.389H693.064V143.567H687V172H693.064ZM711.609 157.916C711.631 162.244 713.213 166.045 715.828 168.66C718.443 171.275 722.31 172.813 726.727 172.813C731.231 172.813 734.856 171.429 737.603 168.66C740.35 165.914 741.756 162.332 741.8 157.916C741.756 153.499 740.35 149.917 737.603 147.171C734.856 144.424 731.231 143.062 726.727 143.062C722.266 143.062 718.641 144.424 715.85 147.171C713.06 149.917 711.653 153.499 711.609 157.916ZM720.486 151.17C722.112 149.478 724.2 148.643 726.727 148.643C729.253 148.643 731.341 149.478 732.989 151.17C734.637 152.862 735.45 155.103 735.45 157.916C735.45 160.728 734.637 162.969 733.011 164.639C731.363 166.309 729.275 167.144 726.727 167.144C724.2 167.144 722.112 166.309 720.486 164.639C718.86 162.969 718.047 160.728 718.047 157.916C718.047 155.103 718.86 152.862 720.486 151.17ZM749.051 172L766.233 155.037V172H772.034V143.567H770.145L752.83 160.486V143.567H747.029V172H749.051ZM751.666 134.383C751.688 136.8 752.479 138.733 754.083 140.184C755.665 141.656 757.686 142.381 760.169 142.381C762.674 142.381 764.717 141.656 766.321 140.184C767.903 138.733 768.694 136.8 768.716 134.383H763.663C763.663 136.558 762.366 137.811 760.169 137.811C757.994 137.811 756.697 136.514 756.697 134.383H751.666ZM814.441 172V177.317H820.286V166.595H816.001V143.567H809.937V166.595H798.006V143.567H791.941V172H814.441ZM846.368 172V166.683H830.833V160.311H844.28V154.993H830.833V148.863H846.17V143.567H824.856V172H846.368ZM856.937 172V160.486H869.637V172H875.701V143.567H869.637V154.993H856.937V143.567H850.872V172H856.937ZM888.138 148.863V172H893.982V148.863H902.969V143.567H879.129V148.863H888.138ZM912.483 172V163.453C913.67 163.716 915.318 163.848 917.427 163.848C923.316 163.848 929.095 161.102 929.095 153.631C929.095 150.796 928.282 148.423 926.524 146.556C924.766 144.688 921.668 143.567 917.625 143.567H906.419V172H912.483ZM912.483 148.863H917.251C919.295 148.863 920.723 149.28 921.536 150.093C922.349 150.928 922.745 152.071 922.745 153.499C922.745 157.125 920.35 158.729 916.57 158.729C914.703 158.729 913.34 158.641 912.483 158.465V148.863ZM517.942 212.035C516.734 213.463 515.174 214.188 513.306 214.188C512.603 214.188 511.768 214.034 510.823 213.727V218.912C511.944 219.264 513.174 219.439 514.471 219.439C516.47 219.439 518.206 218.868 519.722 217.748C521.216 216.627 522.623 214.737 523.919 212.123L534.62 190.567H528.116L521.216 206.124L513.262 190.567H506.561L517.942 212.035ZM534.598 205.003C534.598 207.794 535.213 210.299 536.465 212.54C537.696 214.803 539.454 216.561 541.739 217.857C544.002 219.176 546.595 219.813 549.495 219.813C553.033 219.813 556.153 219.088 558.855 217.616V211.397C556.329 213.111 553.494 213.968 550.308 213.968C547.803 213.968 545.694 213.177 543.98 211.595C542.244 210.013 541.343 207.816 541.255 205.003C541.255 202.169 542.112 199.928 543.826 198.324C545.518 196.72 547.825 195.907 550.704 195.907C553.714 195.907 556.373 196.5 558.636 197.708V191.864C555.823 190.655 553.011 190.062 550.22 190.062C545.54 190.062 541.761 191.424 538.904 194.171C536.026 196.917 534.598 200.521 534.598 205.003ZM561.185 219.044C561.91 219.242 562.942 219.352 564.327 219.352C570.523 219.352 573.467 215.089 573.467 198.39V195.951H582.015V219H588.013V190.567H567.842V196.456C567.842 212.079 565.909 214.276 562.393 214.276C561.998 214.276 561.734 214.254 561.58 214.232L561.185 219.044ZM593.221 204.916C593.243 209.244 594.825 213.045 597.439 215.66C600.054 218.275 603.921 219.813 608.338 219.813C612.842 219.813 616.468 218.429 619.214 215.66C621.961 212.914 623.367 209.332 623.411 204.916C623.367 200.499 621.961 196.917 619.214 194.171C616.468 191.424 612.842 190.062 608.338 190.062C603.877 190.062 600.252 191.424 597.461 194.171C594.671 196.917 593.265 200.499 593.221 204.916ZM602.098 198.17C603.724 196.478 605.811 195.643 608.338 195.643C610.865 195.643 612.952 196.478 614.6 198.17C616.248 199.862 617.061 202.103 617.061 204.916C617.061 207.728 616.248 209.969 614.622 211.639C612.974 213.309 610.887 214.144 608.338 214.144C605.811 214.144 603.724 213.309 602.098 211.639C600.472 209.969 599.659 207.728 599.659 204.916C599.659 202.103 600.472 199.862 602.098 198.17ZM628.641 218.912C631.124 219.066 634.375 219.132 638.396 219.132C642.374 219.132 645.516 218.407 647.823 216.935C650.13 215.462 651.272 213.353 651.272 210.584C651.272 207.091 649.515 204.85 645.999 203.883C648.724 202.674 650.196 200.389 650.196 197.401C650.196 192.984 646.373 190.326 638.704 190.326C635.892 190.326 632.53 190.414 628.641 190.567V218.912ZM634.705 206.849H638.902C642.923 206.849 644.922 208.014 644.922 210.365C644.922 213.023 642.835 214.276 638.616 214.276C637.803 214.276 636.485 214.21 634.705 214.1V206.849ZM634.705 195.292C636.133 195.226 637.364 195.204 638.396 195.204C641.824 195.204 643.802 196.346 643.802 198.521C643.802 200.917 641.78 202.213 638.704 202.213H634.705V195.292ZM658.523 219L675.706 202.037V219H681.507V190.567H679.617L662.303 207.486V190.567H656.502V219H658.523ZM690.384 219L707.566 202.037V219H713.367V190.567H711.478L694.163 207.486V190.567H688.362V219H690.384ZM692.999 181.383C693.021 183.8 693.812 185.733 695.416 187.184C696.998 188.656 699.019 189.381 701.502 189.381C704.007 189.381 706.05 188.656 707.654 187.184C709.236 185.733 710.027 183.8 710.049 181.383H704.996C704.996 183.558 703.699 184.811 701.502 184.811C699.327 184.811 698.03 183.514 698.03 181.383H692.999ZM735.296 219L752.479 202.037V219H758.279V190.567H756.39L739.075 207.486V190.567H733.274V219H735.296ZM776.561 204.916C776.583 209.244 778.165 213.045 780.779 215.66C783.394 218.275 787.261 219.813 791.678 219.813C796.182 219.813 799.808 218.429 802.554 215.66C805.301 212.914 806.707 209.332 806.751 204.916C806.707 200.499 805.301 196.917 802.554 194.171C799.808 191.424 796.182 190.062 791.678 190.062C787.217 190.062 783.592 191.424 780.801 194.171C778.011 196.917 776.604 200.499 776.561 204.916ZM785.438 198.17C787.063 196.478 789.151 195.643 791.678 195.643C794.205 195.643 796.292 196.478 797.94 198.17C799.588 199.862 800.401 202.103 800.401 204.916C800.401 207.728 799.588 209.969 797.962 211.639C796.314 213.309 794.227 214.144 791.678 214.144C789.151 214.144 787.063 213.309 785.438 211.639C783.812 209.969 782.999 207.728 782.999 204.916C782.999 202.103 783.812 199.862 785.438 198.17ZM815.079 219L823.033 208.189L830.547 219H837.579L826.592 203.663L836.128 190.567H829.163L822.813 199.598L816.88 190.567H809.805L819.407 204.234L808.113 219H815.079ZM846.609 219V210.453C847.796 210.716 849.444 210.848 851.553 210.848C857.442 210.848 863.221 208.102 863.221 200.631C863.221 197.796 862.408 195.423 860.65 193.556C858.892 191.688 855.794 190.567 851.751 190.567H840.545V219H846.609ZM846.609 195.863H851.377C853.421 195.863 854.849 196.28 855.662 197.093C856.475 197.928 856.871 199.071 856.871 200.499C856.871 204.125 854.476 205.729 850.696 205.729C848.829 205.729 847.466 205.641 846.609 205.465V195.863ZM867.527 219L869.834 214.012H882.381L884.732 219H891.346L876.932 190.567H875.262L861.243 219H867.527ZM876.075 200.455L880.184 209.244H872.032L876.075 200.455ZM900.398 219V207.486H913.099V219H919.163V190.567H913.099V201.993H900.398V190.567H894.334V219H900.398ZM937.84 219C941.355 219 944.212 217.945 945.992 216.209C947.75 214.474 948.694 212.145 948.694 209.508C948.694 202.301 943.487 199.884 937.137 199.884C935.489 199.884 933.797 200.038 932.083 200.323V190.567H926.019V219H937.84ZM932.083 205.421C934.39 205.135 935.928 205.003 936.719 205.003C940.411 205.003 942.388 206.3 942.388 209.288C942.388 212.123 940.411 213.595 936.895 213.595H932.083V205.421ZM957.637 219V190.567H951.573V219H957.637ZM983.147 195.863V219H988.992V195.863H997.979V190.567H974.139V195.863H983.147ZM1007.49 219V210.453C1008.68 210.716 1010.33 210.848 1012.44 210.848C1018.33 210.848 1024.1 208.102 1024.1 200.631C1024.1 197.796 1023.29 195.423 1021.53 193.556C1019.78 191.688 1016.68 190.567 1012.63 190.567H1001.43V219H1007.49ZM1007.49 195.863H1012.26C1014.3 195.863 1015.73 196.28 1016.55 197.093C1017.36 197.928 1017.75 199.071 1017.75 200.499C1017.75 204.125 1015.36 205.729 1011.58 205.729C1009.71 205.729 1008.35 205.641 1007.49 205.465V195.863ZM1035.93 212.035C1034.72 213.463 1033.16 214.188 1031.29 214.188C1030.59 214.188 1029.75 214.034 1028.81 213.727V218.912C1029.93 219.264 1031.16 219.439 1032.45 219.439C1034.45 219.439 1036.19 218.868 1037.71 217.748C1039.2 216.627 1040.61 214.737 1041.9 212.123L1052.6 190.567H1046.1L1039.2 206.124L1031.25 190.567H1024.54L1035.93 212.035ZM1058.36 224.317V219H1076.69V224.317H1082.4V213.595H1079.06V190.567H1058.54V193.797C1058.54 198.521 1058.29 202.345 1057.79 205.267C1057.28 208.189 1056.45 210.98 1055.31 213.595H1052.65V224.317H1058.36ZM1061.61 213.595C1063.41 209.31 1064.31 204.454 1064.31 199.027V195.951H1073.04V213.595H1061.61ZM1091.69 219L1094 214.012H1106.55L1108.9 219H1115.51L1101.1 190.567H1099.43L1085.41 219H1091.69ZM1100.24 200.455L1104.35 209.244H1096.2L1100.24 200.455Z" fill="#0B8478"/>
<path d="M212.7 222.22L182.02 252.84C178.45 249.27 175.41 245.25 172.93 240.93L210.51 219.35V219.36L210.53 219.4L210.64 219.59L210.67 219.64L210.68 219.65L210.85 219.92L210.86 219.93L210.88 219.96L211.03 220.19L211.04 220.21L211.06 220.24L211.19 220.43L211.22 220.48L211.23 220.5L211.25 220.53L211.29 220.58L211.32 220.63L211.35 220.68L211.38 220.72L211.41 220.77L211.43 220.79L211.45 220.82L211.48 220.86L211.52 220.91L211.55 220.96L211.58 221L211.62 221.05L211.66 221.09L211.69 221.13L211.73 221.17L211.76 221.21L211.8 221.25L211.84 221.29L211.88 221.33L211.92 221.38L211.96 221.42L212 221.46L212.04 221.5L212.08 221.54L212.12 221.58L212.16 221.62L212.2 221.66L212.24 221.7L212.28 221.74L212.32 221.78L212.39 221.86H212.4L212.44 221.9L212.48 221.94L212.52 221.98L212.64 222.11L212.68 222.15L212.7 222.22Z" fill="white"/>
<path d="M237.36 267.75C232.56 269.03 227.58 269.7 222.54 269.69L222.58 226.35H222.61H222.64H222.7H222.76H222.82H222.88H222.94H222.96H222.99H223.05H223.16H223.22H223.28H223.3H223.34L223.4 226.34H223.46H223.52H223.58H223.64H223.65L223.7 226.33H223.76L223.82 226.32H223.88H223.94L224.05 226.31L224.11 226.3L224.17 226.29L224.23 226.28L224.29 226.27L224.4 226.26L224.46 226.25L224.51 226.24L224.57 226.23L224.63 226.22L224.69 226.21L224.75 226.2L224.81 226.19L224.93 226.17L224.98 226.16L225.01 226.15H225.03L225.09 226.14L225.14 226.13L225.2 226.12L225.26 226.11L225.32 226.1L225.43 226.08L225.49 226.07L225.55 226.06L225.6 226.05L225.66 226.04L225.71 226.03L225.77 226.01L225.82 226L225.88 225.99L225.93 225.98L225.99 225.96L226.04 225.95L226.1 225.94L226.16 225.93L226.22 225.92L226.27 225.9L237.36 267.75Z" fill="white"/>
<path d="M209.08 208.71L167.27 197.43C167.87 195.21 168.61 193 169.5 190.8C170.52 188.3 171.68 185.91 172.99 183.64L210.49 205.29C209.85 206.39 209.39 207.54 209.08 208.71Z" fill="white"/>
<path d="M236.21 215.97L278.01 227.2C277.4 229.44 276.66 231.68 275.76 233.88C274.74 236.39 273.57 238.79 272.25 241.07L234.74 219.42L234.81 219.31C235.44 218.25 235.9 217.12 236.21 215.97Z" fill="white"/>
<path d="M219 198.75L207.84 156.95C212.64 155.66 217.62 154.99 222.66 155L222.67 198.26C221.42 198.26 220.18 198.43 219 198.75Z" fill="white"/>
<path d="M272.3 183.71L234.82 205.29C234.22 204.24 233.48 203.27 232.61 202.4L263.19 171.81C266.76 175.38 269.82 179.39 272.3 183.71Z" fill="white"/>
<path d="M207.68 267.7C205.47 267.1 203.26 266.37 201.09 265.48C198.58 264.47 196.18 263.29 193.91 261.98L215.59 224.44L215.65 224.47L215.95 224.64H215.96L216 224.66L216.26 224.79L216.28 224.8L216.31 224.82L216.57 224.95L216.6 224.96L216.62 224.97L216.67 224.99L216.77 225.04L216.82 225.06L216.87 225.08L216.97 225.13L217.02 225.15L217.07 225.17L217.12 225.19L217.17 225.21L217.27 225.25L217.32 225.27L217.37 225.29L217.49 225.34L217.58 225.38L217.63 225.4L217.68 225.42L217.73 225.44L217.78 225.46H217.79L217.94 225.51L217.99 225.53L218.05 225.55L218.1 225.57L218.15 225.59L218.26 225.62L218.31 225.64L218.37 225.66L218.42 225.68L218.47 225.7L218.58 225.73L218.63 225.75L218.68 225.77L218.73 225.79L218.78 225.8L218.89 225.83L218.94 225.85L207.68 267.7Z" fill="white"/>
<path d="M209.1 215.95L167.23 227.12C165.94 222.32 165.28 217.34 165.28 212.3L208.61 212.31C208.61 213.54 208.78 214.77 209.1 215.95Z" fill="white"/>
<path d="M263.1 252.97C259.52 256.53 255.51 259.58 251.18 262.06L229.63 224.49L229.68 224.46L229.7 224.45L229.72 224.44L229.77 224.41L229.86 224.35L229.91 224.32L229.96 224.29L229.99 224.27L230.01 224.26L230.25 224.11L230.28 224.09L230.3 224.08L230.35 224.05L230.54 223.92L230.57 223.9L230.59 223.89L230.64 223.86L230.73 223.79L230.78 223.76L230.83 223.73L230.86 223.71L230.87 223.7L230.92 223.67L230.96 223.64L231 223.6L231.05 223.57L231.09 223.54L231.12 223.52L231.13 223.51L231.18 223.48L231.36 223.34L231.39 223.32L231.4 223.31L231.53 223.21L231.57 223.17L231.62 223.14L231.65 223.11L231.66 223.1L231.83 222.96L231.87 222.92L231.91 222.89L231.92 222.88L231.96 222.84L232 222.8L232.13 222.68L232.16 222.65L232.17 222.64L232.21 222.6L232.25 222.56L232.29 222.52L232.33 222.48L232.37 222.44L232.45 222.36L232.49 222.32L263.1 252.97Z" fill="white"/>
<path d="M212.71 202.39L182.11 171.77C185.68 168.2 189.69 165.15 194.02 162.66L215.59 200.17C214.55 200.77 213.58 201.51 212.71 202.39Z" fill="white"/>
<path d="M279.98 212.34L236.7 212.37C236.7 211.13 236.55 209.9 236.23 208.71L278.02 197.52C279.3 202.32 279.97 207.3 279.98 212.34Z" fill="white"/>
<path d="M226.27 198.73L237.52 156.97C239.76 157.57 241.98 158.31 244.17 159.2C246.66 160.21 249.04 161.37 251.31 162.68L229.69 200.14L229.67 200.13C228.58 199.51 227.43 199.05 226.27 198.73Z" fill="white"/>
<path d="M99.17 308.94L94.28 301.31L93.06 308.8H90L92.58 294.36H93.36L99.17 303.75L105.02 294.36H105.77L108.38 308.8H105.29L103.97 301.31L99.17 308.94Z" fill="white"/>
<path d="M113.55 303C113.55 304.85 114.4 306.59 116.5 306.59C118.76 306.59 119.49 304.81 119.49 303.21C119.49 301.38 118.62 299.64 116.5 299.64C114.25 299.64 113.55 301.42 113.55 303ZM110.3 303.18C110.3 299.68 112.61 297.03 116.49 297.03C120.7 297.03 122.71 299.91 122.71 303.04C122.71 306.52 120.4 309.19 116.49 309.19C112.34 309.15 110.3 306.34 110.3 303.18Z" fill="white"/>
<path d="M134.01 300.39C133.35 299.98 132.11 299.68 130.97 299.68C128.84 299.68 127.68 300.87 127.68 303.08C127.68 305.25 128.92 306.51 130.63 306.51C131.8 306.51 133.19 306.28 134.15 305.71V308.45C133.1 308.97 131.64 309.18 130.61 309.18C127.14 309.18 124.46 306.94 124.46 303.17C124.46 299.49 126.88 297.02 130.72 297.02C131.63 297.02 133.1 297.2 134.01 297.64V300.39V300.39Z" fill="white"/>
<path d="M136.48 297.42H139.63V301.92H140.64L143.81 297.42H147.58L143.33 302.93L148 308.8H144.11L140.73 304.28H139.63V308.8H136.48V297.42Z" fill="white"/>
<path d="M152.16 303C152.16 304.85 153.01 306.59 155.11 306.59C157.37 306.59 158.1 304.81 158.1 303.21C158.1 301.38 157.23 299.64 155.11 299.64C152.87 299.64 152.16 301.42 152.16 303ZM148.91 303.18C148.91 299.68 151.22 297.03 155.1 297.03C159.31 297.03 161.32 299.91 161.32 303.04C161.32 306.52 159.01 309.19 155.1 309.19C150.95 309.15 148.91 306.34 148.91 303.18Z" fill="white"/>
<path d="M169.3 306.47C170.49 306.47 171.06 305.92 171.06 305.17C171.06 304.48 170.51 303.94 169.23 303.94H166.74V306.48H169.3V306.47ZM169.03 302.08C170.08 302.08 170.67 301.53 170.67 300.82C170.67 300.16 170.17 299.59 168.86 299.59H166.74V302.08H169.03V302.08ZM169.01 297.26C171.52 297.26 173.74 297.74 173.74 300.21C173.74 301.56 172.92 302.36 171.77 302.84C173.51 303.37 174.17 304.3 174.17 305.65C174.17 307.62 172.68 308.97 168.73 308.97C167.84 308.97 165.44 308.95 163.72 308.81V297.43C165.37 297.28 167.22 297.26 169.01 297.26Z" fill="white"/>
<path d="M185.28 300.39C184.62 299.98 183.38 299.68 182.24 299.68C180.12 299.68 178.95 300.87 178.95 303.08C178.95 305.25 180.18 306.51 181.9 306.51C183.07 306.51 184.46 306.28 185.42 305.71V308.45C184.37 308.97 182.91 309.18 181.88 309.18C178.41 309.18 175.73 306.94 175.73 303.17C175.73 299.49 178.15 297.02 181.99 297.02C182.91 297.02 184.37 297.2 185.28 297.64V300.39V300.39Z" fill="white"/>
<path d="M187.75 297.42H190.91V301.92H191.91L195.09 297.42H198.86L194.61 302.93L199.27 308.8H195.39L192 304.28H190.91V308.8H187.75V297.42Z" fill="white"/>
<path d="M211.69 308.8H208.74V302.4L202.02 308.8H200.85V297.42H203.8V303.82L210.52 297.42H211.69V308.8Z" fill="white"/>
<path d="M216.33 292.69H218.8C218.8 293.74 219.42 294.36 220.49 294.36C221.56 294.36 222.18 293.74 222.18 292.69H224.65C224.63 295.09 222.89 296.6 220.49 296.6C218.09 296.6 216.35 295.09 216.33 292.69ZM225.58 308.8H222.63V302.4L215.91 308.8H214.74V297.42H217.69V303.82L224.41 297.42H225.58V308.8Z" fill="white"/>
<path d="M238.43 300.07V308.8H235.28V297.42H243.58V300.07H238.43Z" fill="white"/>
<path d="M248.06 303C248.06 304.85 248.91 306.59 251.01 306.59C253.27 306.59 254 304.81 254 303.21C254 301.38 253.13 299.64 251.01 299.64C248.77 299.64 248.06 301.42 248.06 303ZM244.81 303.18C244.81 299.68 247.12 297.03 251 297.03C255.2 297.03 257.22 299.91 257.22 303.04C257.22 306.52 254.91 309.19 251 309.19C246.85 309.15 244.81 306.34 244.81 303.18Z" fill="white"/>
<path d="M268.49 302.95C268.49 301.05 267.62 299.66 265.65 299.66C264.55 299.66 263.39 300.12 262.75 300.71V305.56C263.6 306.27 264.53 306.52 265.65 306.52C267.67 306.5 268.49 304.87 268.49 302.95ZM262.78 313.15H259.63V297.42H262.35L262.49 299.2C263.31 297.76 264.64 297.03 266.4 297.03C270.04 297.03 271.73 299.64 271.73 302.88C271.73 306.22 269.72 309.19 266.08 309.19C264.85 309.19 263.68 308.78 262.79 307.77V313.15H262.78Z" fill="white"/>
<path d="M276.56 303C276.56 304.85 277.41 306.59 279.51 306.59C281.77 306.59 282.5 304.81 282.5 303.21C282.5 301.38 281.63 299.64 279.51 299.64C277.27 299.64 276.56 301.42 276.56 303ZM273.32 303.18C273.32 299.68 275.63 297.03 279.51 297.03C283.71 297.03 285.73 299.91 285.73 303.04C285.73 306.52 283.42 309.19 279.51 309.19C275.35 309.15 273.32 306.34 273.32 303.18Z" fill="white"/>
<path d="M296.2 306.31V299.89H292.89V300.26C292.89 302.2 292.71 304.44 291.95 306.32H296.2V306.31ZM290.23 308.8V311.5H287.55V306.31H288.85C289.86 304.21 290.02 301.1 290.02 298.29V297.42H299.23V306.31H300.92V311.5H298.25V308.8H290.23Z" fill="white"/>
<path d="M312.27 300.39C311.61 299.98 310.37 299.68 309.23 299.68C307.1 299.68 305.94 300.87 305.94 303.08C305.94 305.25 307.17 306.51 308.89 306.51C310.06 306.51 311.45 306.28 312.41 305.71V308.45C311.36 308.97 309.9 309.18 308.87 309.18C305.39 309.18 302.72 306.94 302.72 303.17C302.72 299.49 305.14 297.02 308.98 297.02C309.89 297.02 311.36 297.2 312.27 297.64V300.39Z" fill="white"/>
<path d="M314.74 297.42H317.9V301.92H318.9L322.08 297.42H325.85L321.6 302.93L326.26 308.8H322.38L318.99 304.28H317.9V308.8H314.74V297.42Z" fill="white"/>
<path d="M330.42 303C330.42 304.85 331.27 306.59 333.37 306.59C335.63 306.59 336.36 304.81 336.36 303.21C336.36 301.38 335.49 299.64 333.37 299.64C331.13 299.64 330.42 301.42 330.42 303ZM327.18 303.18C327.18 299.68 329.49 297.03 333.37 297.03C337.57 297.03 339.59 299.91 339.59 303.04C339.59 306.52 337.28 309.19 333.37 309.19C329.21 309.15 327.18 306.34 327.18 303.18Z" fill="white"/>
<path d="M343.57 292.69H346.04C346.04 293.74 346.66 294.36 347.73 294.36C348.8 294.36 349.42 293.74 349.42 292.69H351.89C351.87 295.09 350.13 296.6 347.73 296.6C345.33 296.6 343.59 295.09 343.57 292.69ZM352.83 308.8H349.88V302.4L343.16 308.8H341.99V297.42H344.94V303.82L351.66 297.42H352.83V308.8V308.8Z" fill="white"/>
<path d="M140.27 324.85H143.43V333.77H147.54V324.85H150.69V333.77H152.34V338.93H149.57V336.24H140.27V324.85Z" fill="white"/>
<path d="M162.67 329.77C162.67 327.94 161.66 327.07 160.2 327.07C158.46 327.07 157.32 328.08 157.18 329.77H162.67ZM164.71 335.82C163.71 336.39 162.08 336.62 160.66 336.62C156.13 336.62 154.17 333.9 154.17 330.49C154.17 326.4 157.1 324.48 160.2 324.48C164.2 324.48 165.66 327.2 165.66 330.17C165.66 330.65 165.59 331.38 165.52 331.84H157.3C157.55 333.44 159.11 334.06 161.05 334.06C162.19 334.06 163.47 333.74 164.71 333.35V335.82Z" fill="white"/>
<path d="M178.86 336.24H175.7V331.78H171.43V336.24H168.28V324.85H171.43V329.31H175.7V324.85H178.86V336.24Z" fill="white"/>
<path d="M191.07 327.41H187.59V336.24H184.44V327.41H180.96V324.85H191.07V327.41Z" fill="white"/>
<path d="M202.04 330.39C202.04 328.49 201.17 327.1 199.21 327.1C198.11 327.1 196.95 327.56 196.31 328.15V333C197.16 333.71 198.09 333.96 199.21 333.96C201.22 333.93 202.04 332.31 202.04 330.39ZM196.32 340.58H193.17V324.85H195.89L196.03 326.63C196.85 325.19 198.18 324.46 199.94 324.46C203.57 324.46 205.27 327.07 205.27 330.31C205.27 333.65 203.26 336.62 199.62 336.62C198.39 336.62 197.22 336.21 196.33 335.2V340.58H196.32Z" fill="white"/>
<path d="M214.61 340.58L217.58 335.07L212.83 324.85H216.3L218.98 331.78L221.54 324.85H224.85L217.81 340.58H214.61Z" fill="white"/>
<path d="M235.16 327.83C234.5 327.42 233.26 327.12 232.12 327.12C229.99 327.12 228.83 328.31 228.83 330.52C228.83 332.69 230.06 333.95 231.78 333.95C232.95 333.95 234.34 333.72 235.3 333.15V335.89C234.25 336.42 232.78 336.62 231.76 336.62C228.29 336.62 225.61 334.38 225.61 330.61C225.61 326.93 228.03 324.46 231.87 324.46C232.78 324.46 234.25 324.64 235.16 325.08V327.83Z" fill="white"/>
<path d="M248.33 324.85V336.23H245.27V327.41H242.07C242.07 335.09 240.86 336.35 238 336.35C237.61 336.35 236.9 336.3 236.44 336.21L236.67 333.79C236.85 333.81 237.1 333.81 237.22 333.81C238.57 333.81 239.25 333.03 239.25 324.85H248.33V324.85Z" fill="white"/>
<path d="M253.98 330.43C253.98 332.28 254.83 334.02 256.93 334.02C259.19 334.02 259.92 332.24 259.92 330.64C259.92 328.81 259.05 327.07 256.93 327.07C254.69 327.07 253.98 328.85 253.98 330.43ZM250.73 330.61C250.73 327.11 253.04 324.46 256.93 324.46C261.13 324.46 263.15 327.34 263.15 330.47C263.15 333.94 260.84 336.62 256.93 336.62C252.77 336.58 250.73 333.77 250.73 330.61Z" fill="white"/>
<path d="M271.12 333.91C272.31 333.91 272.88 333.36 272.88 332.61C272.88 331.92 272.33 331.38 271.05 331.38H268.56V333.92H271.12V333.91ZM270.85 329.52C271.9 329.52 272.5 328.97 272.5 328.26C272.5 327.6 272 327.03 270.69 327.03H268.56V329.52H270.85V329.52ZM270.83 324.69C273.34 324.69 275.56 325.17 275.56 327.64C275.56 328.99 274.74 329.79 273.59 330.27C275.33 330.8 275.99 331.73 275.99 333.08C275.99 335.05 274.5 336.39 270.55 336.39C269.66 336.39 267.26 336.37 265.54 336.23V324.85C267.19 324.72 269.04 324.69 270.83 324.69Z" fill="white"/>
<path d="M289.04 336.24H286.1V329.84L279.38 336.24H278.21V324.85H281.16V331.25L287.88 324.85H289.04V336.24Z" fill="white"/>
<path d="M293.69 320.12H296.16C296.16 321.17 296.78 321.79 297.85 321.79C298.92 321.79 299.54 321.17 299.54 320.12H302.01C301.99 322.52 300.25 324.03 297.85 324.03C295.45 324.03 293.71 322.52 293.69 320.12ZM302.94 336.24H300V329.84L293.28 336.24H292.11V324.86H295.06V331.26L301.78 324.86H302.95V336.24H302.94Z" fill="white"/>
<path d="M145.15 363.67H142.2V357.27L135.48 363.67H134.32V352.29H137.26V358.69L143.98 352.29H145.15V363.67Z" fill="white"/>
<path d="M157.43 357.86C157.43 359.71 158.28 361.45 160.38 361.45C162.64 361.45 163.37 359.67 163.37 358.07C163.37 356.24 162.5 354.5 160.38 354.5C158.13 354.5 157.43 356.29 157.43 357.86ZM154.18 358.05C154.18 354.55 156.49 351.9 160.38 351.9C164.59 351.9 166.6 354.78 166.6 357.91C166.6 361.38 164.29 364.06 160.38 364.06C156.22 364.01 154.18 361.2 154.18 358.05Z" fill="white"/>
<path d="M179.21 363.67H175.81L173.52 360.15L171.33 363.67H167.78L171.83 357.98L167.69 352.29H171.21L173.5 355.88L175.76 352.29H179.19L175.14 357.91L179.21 363.67Z" fill="white"/>
<path d="M189.84 357.82C189.84 355.92 188.97 354.53 187.01 354.53C185.91 354.53 184.75 354.99 184.11 355.58V360.43C184.96 361.14 185.89 361.39 187.01 361.39C189.02 361.36 189.84 359.74 189.84 357.82ZM184.13 368.01H180.98V352.28H183.7L183.84 354.06C184.66 352.62 185.99 351.89 187.75 351.89C191.38 351.89 193.08 354.5 193.08 357.74C193.08 361.08 191.07 364.05 187.43 364.05C186.2 364.05 185.03 363.64 184.14 362.63V368.01H184.13Z" fill="white"/>
<path d="M202.32 358.75C201.77 358.41 201.06 358.23 200.24 358.23C198.59 358.23 197.82 358.82 197.82 360.08C197.82 360.95 198.46 361.61 199.58 361.61C200.61 361.61 201.73 361.06 202.32 360.06V358.75ZM203.08 363.67L202.78 362.09C201.68 363.48 200.45 363.92 198.41 363.92C195.99 363.92 194.66 362.09 194.66 360.15C194.66 357.25 196.95 356.15 199.55 356.15C200.46 356.15 201.63 356.31 202.32 356.58V356.17C202.32 354.75 201.11 354.43 200.01 354.43C198.16 354.43 196.76 354.86 195.9 355.3V352.56C197.18 352.15 198.71 351.9 200.45 351.9C203.17 351.9 205.34 353 205.34 356.56V363.67H203.08Z" fill="white"/>
<path d="M218.99 363.67H215.84V359.21H211.56V363.67H208.41V352.29H211.56V356.74H215.84V352.29H218.99V363.67Z" fill="white"/>
<path d="M233.07 352.29H236.22V363.67H233.07V352.29ZM225.21 361.31H227.04C228.48 361.31 229 360.58 229 359.73C229 358.73 228.2 358.24 226.87 358.24C226.23 358.24 225.77 358.31 225.2 358.47V361.31H225.21ZM222.05 352.29H225.2V356.27C226.02 356.04 226.59 355.97 227.3 355.97C230.34 355.97 232.05 357.57 232.05 359.74C232.05 362.1 230.45 363.67 227.55 363.67H222.04V352.29H222.05Z" fill="white"/>
<path d="M255.06 354.85H251.59V363.67H248.43V354.85H244.96V352.29H255.06V354.85Z" fill="white"/>
<path d="M266.04 357.82C266.04 355.92 265.17 354.53 263.21 354.53C262.11 354.53 260.95 354.99 260.31 355.58V360.43C261.16 361.14 262.09 361.39 263.21 361.39C265.21 361.36 266.04 359.74 266.04 357.82ZM260.32 368.01H257.17V352.28H259.89L260.03 354.06C260.85 352.62 262.18 351.89 263.94 351.89C267.57 351.89 269.27 354.5 269.27 357.74C269.27 361.08 267.26 364.05 263.62 364.05C262.39 364.05 261.22 363.64 260.33 362.63V368.01H260.32Z" fill="white"/>
<path d="M271.98 368.01L274.95 362.5L270.2 352.29H273.67L276.35 359.21L278.91 352.29H282.22L275.18 368.01H271.98Z" fill="white"/>
<path d="M291.71 361.18V354.76H288.4V355.13C288.4 357.07 288.22 359.31 287.46 361.19H291.71V361.18ZM285.74 363.67V366.37H283.07V361.18H284.37C285.38 359.08 285.54 355.97 285.54 353.16V352.29H294.75V361.18H296.44V366.37H293.77V363.67H285.74V363.67Z" fill="white"/>
<path d="M305.88 358.75C305.33 358.41 304.62 358.23 303.8 358.23C302.15 358.23 301.38 358.82 301.38 360.08C301.38 360.95 302.02 361.61 303.14 361.61C304.17 361.61 305.29 361.06 305.88 360.06V358.75ZM306.64 363.67L306.34 362.09C305.24 363.48 304.01 363.92 301.97 363.92C299.55 363.92 298.22 362.09 298.22 360.15C298.22 357.25 300.51 356.15 303.11 356.15C304.03 356.15 305.19 356.31 305.88 356.58V356.17C305.88 354.75 304.67 354.43 303.57 354.43C301.72 354.43 300.32 354.86 299.46 355.3V352.56C300.74 352.15 302.27 351.9 304.01 351.9C306.73 351.9 308.9 353 308.9 356.56V363.67H306.64Z" fill="white"/>
<path d="M507 260H1183V263H507V260Z" fill="#434442"/>
<rect x="1163" y="409" width="123" height="115" fill="#0B8478"/>
<path d="M507 427C507 417.059 515.059 409 525 409H691C700.941 409 709 417.059 709 427V444C709 453.941 700.941 462 691 462H525C515.059 462 507 453.941 507 444V427Z" fill="#EA4E4D"/>
<path d="M1222.17 456.459L1212.38 466.234C1211.24 465.094 1210.27 463.811 1209.47 462.432L1221.47 455.543V455.546L1221.48 455.559L1221.51 455.619L1221.52 455.635L1221.53 455.638L1221.58 455.725L1221.58 455.728L1221.59 455.737L1221.64 455.811L1221.64 455.817L1221.65 455.827L1221.69 455.887L1221.7 455.903L1221.7 455.91L1221.71 455.919L1221.72 455.935L1221.73 455.951L1221.74 455.967L1221.75 455.98L1221.76 455.996L1221.76 456.002L1221.77 456.012L1221.78 456.025L1221.79 456.041L1221.8 456.057L1221.81 456.069L1221.83 456.085L1221.84 456.098L1221.85 456.111L1221.86 456.124L1221.87 456.136L1221.88 456.149L1221.9 456.162L1221.91 456.175L1221.92 456.191L1221.93 456.204L1221.95 456.216L1221.96 456.229L1221.97 456.242L1221.98 456.255L1222 456.267L1222.01 456.28L1222.02 456.293L1222.04 456.306L1222.05 456.318L1222.07 456.344H1222.07L1222.09 456.357L1222.1 456.37L1222.11 456.382L1222.15 456.424L1222.16 456.437L1222.17 456.459Z" fill="white"/>
<path d="M1230.04 470.994C1228.51 471.402 1226.92 471.616 1225.31 471.613L1225.32 457.777H1225.33H1225.34H1225.36H1225.38H1225.4H1225.42H1225.44H1225.45H1225.45H1225.47H1225.51H1225.53H1225.55H1225.55H1225.57L1225.59 457.774H1225.6H1225.62H1225.64H1225.66H1225.67L1225.68 457.771H1225.7L1225.72 457.768H1225.74H1225.76L1225.79 457.765L1225.81 457.761L1225.83 457.758L1225.85 457.755L1225.87 457.752L1225.9 457.749L1225.92 457.745L1225.94 457.742L1225.96 457.739L1225.98 457.736L1226 457.733L1226.02 457.729L1226.04 457.726L1226.07 457.72L1226.09 457.717L1226.1 457.714H1226.11L1226.13 457.71L1226.14 457.707L1226.16 457.704L1226.18 457.701L1226.2 457.698L1226.23 457.691L1226.25 457.688L1226.27 457.685L1226.29 457.682L1226.31 457.678L1226.32 457.675L1226.34 457.669L1226.36 457.666L1226.38 457.662L1226.39 457.659L1226.41 457.653L1226.43 457.65L1226.45 457.646L1226.47 457.643L1226.49 457.64L1226.5 457.634L1230.04 470.994Z" fill="white"/>
<path d="M1221.01 452.146L1207.67 448.545C1207.86 447.836 1208.09 447.131 1208.38 446.429C1208.7 445.631 1209.07 444.868 1209.49 444.143L1221.46 451.054C1221.26 451.405 1221.11 451.773 1221.01 452.146Z" fill="white"/>
<path d="M1229.68 454.464L1243.02 458.049C1242.82 458.764 1242.59 459.479 1242.3 460.181C1241.98 460.982 1241.6 461.749 1241.18 462.476L1229.21 455.565L1229.23 455.53C1229.43 455.192 1229.58 454.831 1229.68 454.464Z" fill="white"/>
<path d="M1224.18 448.967L1220.62 435.623C1222.15 435.211 1223.74 434.997 1225.35 435L1225.35 448.81C1224.95 448.81 1224.56 448.864 1224.18 448.967Z" fill="white"/>
<path d="M1241.2 444.165L1229.23 451.054C1229.04 450.719 1228.8 450.409 1228.53 450.132L1238.29 440.366C1239.43 441.506 1240.4 442.786 1241.2 444.165Z" fill="white"/>
<path d="M1220.57 470.978C1219.86 470.786 1219.16 470.553 1218.46 470.269C1217.66 469.947 1216.9 469.57 1216.17 469.152L1223.09 457.168L1223.11 457.177L1223.21 457.231H1223.21L1223.22 457.238L1223.31 457.279L1223.31 457.283L1223.32 457.289L1223.41 457.33L1223.41 457.334L1223.42 457.337L1223.44 457.343L1223.47 457.359L1223.49 457.366L1223.5 457.372L1223.53 457.388L1223.55 457.394L1223.57 457.401L1223.58 457.407L1223.6 457.413L1223.63 457.426L1223.64 457.433L1223.66 457.439L1223.7 457.455L1223.73 457.468L1223.74 457.474L1223.76 457.48L1223.78 457.487L1223.79 457.493H1223.79L1223.84 457.509L1223.86 457.516L1223.88 457.522L1223.89 457.528L1223.91 457.535L1223.94 457.544L1223.96 457.551L1223.98 457.557L1224 457.563L1224.01 457.57L1224.05 457.579L1224.06 457.586L1224.08 457.592L1224.09 457.599L1224.11 457.602L1224.15 457.611L1224.16 457.618L1220.57 470.978Z" fill="white"/>
<path d="M1221.02 454.457L1207.65 458.023C1207.24 456.491 1207.03 454.901 1207.03 453.292L1220.86 453.295C1220.86 453.688 1220.92 454.081 1221.02 454.457Z" fill="white"/>
<path d="M1238.26 466.275C1237.12 467.412 1235.84 468.385 1234.45 469.177L1227.57 457.184L1227.59 457.174L1227.6 457.171L1227.6 457.168L1227.62 457.158L1227.65 457.139L1227.66 457.129L1227.68 457.12L1227.69 457.113L1227.7 457.11L1227.77 457.062L1227.78 457.056L1227.79 457.053L1227.8 457.043L1227.87 457.002L1227.87 456.995L1227.88 456.992L1227.9 456.982L1227.93 456.96L1227.94 456.951L1227.96 456.941L1227.97 456.935L1227.97 456.931L1227.99 456.922L1228 456.912L1228.01 456.899L1228.03 456.89L1228.04 456.88L1228.05 456.874L1228.05 456.871L1228.07 456.861L1228.13 456.816L1228.14 456.81L1228.14 456.807L1228.18 456.775L1228.19 456.762L1228.21 456.753L1228.22 456.743L1228.22 456.74L1228.28 456.695L1228.29 456.682L1228.3 456.673L1228.31 456.67L1228.32 456.657L1228.33 456.644L1228.37 456.606L1228.38 456.596L1228.39 456.593L1228.4 456.58L1228.41 456.567L1228.42 456.555L1228.44 456.542L1228.45 456.529L1228.47 456.504L1228.49 456.491L1238.26 466.275Z" fill="white"/>
<path d="M1222.17 450.129L1212.4 440.354C1213.54 439.214 1214.82 438.24 1216.21 437.445L1223.09 449.42C1222.76 449.611 1222.45 449.848 1222.17 450.129Z" fill="white"/>
<path d="M1243.65 453.305L1229.83 453.314C1229.83 452.919 1229.78 452.526 1229.68 452.146L1243.02 448.574C1243.43 450.106 1243.64 451.696 1243.65 453.305Z" fill="white"/>
<path d="M1226.5 448.96L1230.09 435.629C1230.81 435.82 1231.52 436.057 1232.22 436.341C1233.01 436.663 1233.77 437.034 1234.5 437.452L1227.59 449.41L1227.59 449.407C1227.24 449.209 1226.87 449.062 1226.5 448.96Z" fill="white"/>
<path d="M1185.93 484.143L1184.37 481.707L1183.98 484.098H1183L1183.82 479.488H1184.07L1185.93 482.486L1187.79 479.488H1188.03L1188.87 484.098H1187.88L1187.46 481.707L1185.93 484.143Z" fill="white"/>
<path d="M1190.52 482.247C1190.52 482.837 1190.79 483.393 1191.46 483.393C1192.18 483.393 1192.41 482.824 1192.41 482.314C1192.41 481.729 1192.14 481.174 1191.46 481.174C1190.74 481.174 1190.52 481.742 1190.52 482.247ZM1189.48 482.304C1189.48 481.187 1190.22 480.341 1191.46 480.341C1192.8 480.341 1193.44 481.26 1193.44 482.259C1193.44 483.37 1192.7 484.223 1191.46 484.223C1190.13 484.21 1189.48 483.313 1189.48 482.304Z" fill="white"/>
<path d="M1197.05 481.413C1196.84 481.283 1196.44 481.187 1196.08 481.187C1195.4 481.187 1195.03 481.567 1195.03 482.272C1195.03 482.965 1195.42 483.367 1195.97 483.367C1196.34 483.367 1196.79 483.294 1197.09 483.112V483.986C1196.76 484.152 1196.29 484.22 1195.96 484.22C1194.86 484.22 1194 483.504 1194 482.301C1194 481.126 1194.77 480.338 1196 480.338C1196.29 480.338 1196.76 480.395 1197.05 480.536V481.413V481.413Z" fill="white"/>
<path d="M1197.84 480.465H1198.84V481.902H1199.17L1200.18 480.465H1201.38L1200.02 482.224L1201.52 484.098H1200.27L1199.19 482.655H1198.84V484.098H1197.84V480.465Z" fill="white"/>
<path d="M1202.84 482.247C1202.84 482.837 1203.11 483.393 1203.79 483.393C1204.51 483.393 1204.74 482.824 1204.74 482.314C1204.74 481.729 1204.46 481.174 1203.79 481.174C1203.07 481.174 1202.84 481.742 1202.84 482.247ZM1201.81 482.304C1201.81 481.187 1202.54 480.341 1203.78 480.341C1205.13 480.341 1205.77 481.26 1205.77 482.259C1205.77 483.37 1205.03 484.223 1203.78 484.223C1202.46 484.21 1201.81 483.313 1201.81 482.304Z" fill="white"/>
<path d="M1208.32 483.354C1208.7 483.354 1208.88 483.179 1208.88 482.939C1208.88 482.719 1208.7 482.547 1208.29 482.547H1207.5V483.358H1208.32V483.354ZM1208.23 481.953C1208.56 481.953 1208.75 481.777 1208.75 481.551C1208.75 481.34 1208.59 481.158 1208.17 481.158H1207.5V481.953H1208.23V481.953ZM1208.22 480.414C1209.02 480.414 1209.73 480.567 1209.73 481.356C1209.73 481.787 1209.47 482.042 1209.1 482.196C1209.66 482.365 1209.87 482.662 1209.87 483.093C1209.87 483.721 1209.39 484.152 1208.13 484.152C1207.85 484.152 1207.08 484.146 1206.53 484.101V480.468C1207.06 480.421 1207.65 480.414 1208.22 480.414Z" fill="white"/>
<path d="M1213.42 481.413C1213.21 481.283 1212.81 481.187 1212.45 481.187C1211.77 481.187 1211.4 481.567 1211.4 482.272C1211.4 482.965 1211.79 483.367 1212.34 483.367C1212.71 483.367 1213.15 483.294 1213.46 483.112V483.986C1213.13 484.152 1212.66 484.22 1212.33 484.22C1211.22 484.22 1210.37 483.504 1210.37 482.301C1210.37 481.126 1211.14 480.338 1212.37 480.338C1212.66 480.338 1213.13 480.395 1213.42 480.536V481.413V481.413Z" fill="white"/>
<path d="M1214.21 480.465H1215.21V481.902H1215.53L1216.55 480.465H1217.75L1216.4 482.224L1217.88 484.098H1216.64L1215.56 482.655H1215.21V484.098H1214.21V480.465Z" fill="white"/>
<path d="M1221.85 484.098H1220.91V482.055L1218.76 484.098H1218.39V480.465H1219.33V482.508L1221.47 480.465H1221.85V484.098Z" fill="white"/>
<path d="M1223.33 478.955H1224.12C1224.12 479.291 1224.32 479.488 1224.66 479.488C1225 479.488 1225.2 479.291 1225.2 478.955H1225.98C1225.98 479.721 1225.42 480.204 1224.66 480.204C1223.89 480.204 1223.34 479.721 1223.33 478.955ZM1226.28 484.098H1225.34V482.055L1223.19 484.098H1222.82V480.465H1223.76V482.508L1225.91 480.465H1226.28V484.098Z" fill="white"/>
<path d="M1230.38 481.311V484.098H1229.38V480.465H1232.03V481.311H1230.38Z" fill="white"/>
<path d="M1233.46 482.247C1233.46 482.837 1233.73 483.393 1234.4 483.393C1235.12 483.393 1235.35 482.824 1235.35 482.314C1235.35 481.729 1235.08 481.174 1234.4 481.174C1233.68 481.174 1233.46 481.742 1233.46 482.247ZM1232.42 482.304C1232.42 481.187 1233.16 480.341 1234.4 480.341C1235.74 480.341 1236.38 481.26 1236.38 482.259C1236.38 483.37 1235.64 484.223 1234.4 484.223C1233.07 484.21 1232.42 483.313 1232.42 482.304Z" fill="white"/>
<path d="M1239.98 482.231C1239.98 481.624 1239.7 481.18 1239.07 481.18C1238.72 481.18 1238.35 481.327 1238.15 481.516V483.064C1238.42 483.291 1238.72 483.37 1239.07 483.37C1239.72 483.364 1239.98 482.844 1239.98 482.231ZM1238.16 485.487H1237.15V480.465H1238.02L1238.06 481.034C1238.33 480.574 1238.75 480.341 1239.31 480.341C1240.47 480.341 1241.01 481.174 1241.01 482.208C1241.01 483.275 1240.37 484.223 1239.21 484.223C1238.82 484.223 1238.44 484.092 1238.16 483.769V485.487H1238.16Z" fill="white"/>
<path d="M1242.56 482.247C1242.56 482.837 1242.83 483.393 1243.5 483.393C1244.22 483.393 1244.45 482.824 1244.45 482.314C1244.45 481.729 1244.17 481.174 1243.5 481.174C1242.78 481.174 1242.56 481.742 1242.56 482.247ZM1241.52 482.304C1241.52 481.187 1242.26 480.341 1243.5 480.341C1244.84 480.341 1245.48 481.26 1245.48 482.259C1245.48 483.37 1244.75 484.223 1243.5 484.223C1242.17 484.21 1241.52 483.313 1241.52 482.304Z" fill="white"/>
<path d="M1248.83 483.303V481.254H1247.77V481.372C1247.77 481.991 1247.71 482.706 1247.47 483.307H1248.83V483.303ZM1246.92 484.098V484.96H1246.06V483.303H1246.48C1246.8 482.633 1246.85 481.64 1246.85 480.743V480.465H1249.79V483.303H1250.33V484.96H1249.48V484.098H1246.92Z" fill="white"/>
<path d="M1253.96 481.413C1253.75 481.283 1253.35 481.187 1252.99 481.187C1252.31 481.187 1251.94 481.567 1251.94 482.272C1251.94 482.965 1252.33 483.367 1252.88 483.367C1253.25 483.367 1253.69 483.294 1254 483.112V483.986C1253.67 484.152 1253.2 484.22 1252.87 484.22C1251.76 484.22 1250.91 483.504 1250.91 482.301C1250.91 481.126 1251.68 480.338 1252.91 480.338C1253.2 480.338 1253.67 480.395 1253.96 480.536V481.413Z" fill="white"/>
<path d="M1254.74 480.465H1255.75V481.902H1256.07L1257.09 480.465H1258.29L1256.93 482.224L1258.42 484.098H1257.18L1256.1 482.655H1255.75V484.098H1254.74V480.465Z" fill="white"/>
<path d="M1259.75 482.247C1259.75 482.837 1260.02 483.393 1260.69 483.393C1261.41 483.393 1261.65 482.824 1261.65 482.314C1261.65 481.729 1261.37 481.174 1260.69 481.174C1259.98 481.174 1259.75 481.742 1259.75 482.247ZM1258.72 482.304C1258.72 481.187 1259.45 480.341 1260.69 480.341C1262.03 480.341 1262.68 481.26 1262.68 482.259C1262.68 483.37 1261.94 484.223 1260.69 484.223C1259.36 484.21 1258.72 483.313 1258.72 482.304Z" fill="white"/>
<path d="M1263.95 478.955H1264.74C1264.74 479.291 1264.93 479.488 1265.28 479.488C1265.62 479.488 1265.82 479.291 1265.82 478.955H1266.6C1266.6 479.721 1266.04 480.204 1265.28 480.204C1264.51 480.204 1263.95 479.721 1263.95 478.955ZM1266.9 484.098H1265.96V482.055L1263.82 484.098H1263.44V480.465H1264.39V482.508L1266.53 480.465H1266.9V484.098V484.098Z" fill="white"/>
<path d="M1199.05 489.222H1200.06V492.069H1201.37V489.222H1202.37V492.069H1202.9V493.717H1202.02V492.858H1199.05V489.222Z" fill="white"/>
<path d="M1206.2 490.793C1206.2 490.208 1205.88 489.931 1205.41 489.931C1204.85 489.931 1204.49 490.253 1204.45 490.793H1206.2ZM1206.85 492.724C1206.53 492.906 1206.01 492.979 1205.56 492.979C1204.11 492.979 1203.49 492.111 1203.49 491.022C1203.49 489.717 1204.42 489.104 1205.41 489.104C1206.69 489.104 1207.15 489.972 1207.15 490.92C1207.15 491.073 1207.13 491.306 1207.11 491.453H1204.48C1204.56 491.964 1205.06 492.162 1205.68 492.162C1206.05 492.162 1206.45 492.06 1206.85 491.935V492.724Z" fill="white"/>
<path d="M1211.37 492.858H1210.36V491.434H1209V492.858H1207.99V489.222H1209V490.646H1210.36V489.222H1211.37V492.858Z" fill="white"/>
<path d="M1215.26 490.039H1214.15V492.858H1213.15V490.039H1212.04V489.222H1215.26V490.039Z" fill="white"/>
<path d="M1218.77 490.99C1218.77 490.384 1218.49 489.94 1217.86 489.94C1217.51 489.94 1217.14 490.087 1216.94 490.275V491.824C1217.21 492.05 1217.51 492.13 1217.86 492.13C1218.51 492.121 1218.77 491.603 1218.77 490.99ZM1216.94 494.243H1215.94V489.222H1216.8L1216.85 489.79C1217.11 489.33 1217.53 489.097 1218.1 489.097C1219.26 489.097 1219.8 489.931 1219.8 490.965C1219.8 492.031 1219.16 492.979 1217.99 492.979C1217.6 492.979 1217.23 492.848 1216.94 492.526V494.243H1216.94Z" fill="white"/>
<path d="M1222.78 494.243L1223.73 492.484L1222.21 489.222H1223.32L1224.17 491.434L1224.99 489.222H1226.05L1223.8 494.243H1222.78Z" fill="white"/>
<path d="M1229.34 490.173C1229.13 490.042 1228.73 489.947 1228.37 489.947C1227.69 489.947 1227.32 490.326 1227.32 491.032C1227.32 491.725 1227.71 492.127 1228.26 492.127C1228.63 492.127 1229.08 492.054 1229.38 491.872V492.746C1229.05 492.915 1228.58 492.979 1228.25 492.979C1227.15 492.979 1226.29 492.264 1226.29 491.061C1226.29 489.886 1227.06 489.097 1228.29 489.097C1228.58 489.097 1229.05 489.155 1229.34 489.295V490.173Z" fill="white"/>
<path d="M1233.54 489.222V492.855H1232.57V490.039H1231.55C1231.55 492.491 1231.16 492.893 1230.25 492.893C1230.12 492.893 1229.9 492.877 1229.75 492.848L1229.82 492.076C1229.88 492.082 1229.96 492.082 1230 492.082C1230.43 492.082 1230.65 491.833 1230.65 489.222H1233.54V489.222Z" fill="white"/>
<path d="M1235.35 491.003C1235.35 491.594 1235.62 492.149 1236.29 492.149C1237.01 492.149 1237.24 491.581 1237.24 491.07C1237.24 490.486 1236.97 489.931 1236.29 489.931C1235.57 489.931 1235.35 490.499 1235.35 491.003ZM1234.31 491.061C1234.31 489.943 1235.05 489.097 1236.29 489.097C1237.63 489.097 1238.28 490.017 1238.28 491.016C1238.28 492.124 1237.54 492.979 1236.29 492.979C1234.96 492.967 1234.31 492.069 1234.31 491.061Z" fill="white"/>
<path d="M1240.82 492.114C1241.2 492.114 1241.38 491.939 1241.38 491.699C1241.38 491.479 1241.21 491.306 1240.8 491.306H1240V492.117H1240.82V492.114ZM1240.73 490.713C1241.07 490.713 1241.26 490.537 1241.26 490.31C1241.26 490.1 1241.1 489.918 1240.68 489.918H1240V490.713H1240.73V490.713ZM1240.73 489.171C1241.53 489.171 1242.24 489.324 1242.24 490.113C1242.24 490.543 1241.98 490.799 1241.61 490.952C1242.16 491.121 1242.37 491.418 1242.37 491.849C1242.37 492.478 1241.9 492.906 1240.64 492.906C1240.35 492.906 1239.59 492.899 1239.04 492.855V489.222C1239.56 489.18 1240.16 489.171 1240.73 489.171Z" fill="white"/>
<path d="M1246.54 492.858H1245.6V490.815L1243.46 492.858H1243.08V489.222H1244.02V491.265L1246.17 489.222H1246.54V492.858Z" fill="white"/>
<path d="M1248.02 487.712H1248.81C1248.81 488.047 1249.01 488.245 1249.35 488.245C1249.69 488.245 1249.89 488.047 1249.89 487.712H1250.68C1250.67 488.478 1250.12 488.96 1249.35 488.96C1248.59 488.96 1248.03 488.478 1248.02 487.712ZM1250.98 492.858H1250.04V490.815L1247.89 492.858H1247.52V489.225H1248.46V491.268L1250.61 489.225H1250.98V492.858H1250.98Z" fill="white"/>
<path d="M1200.61 501.615H1199.66V499.571L1197.52 501.615H1197.15V497.982H1198.09V500.025L1200.23 497.982H1200.61V501.615Z" fill="white"/>
<path d="M1204.53 499.76C1204.53 500.35 1204.8 500.906 1205.47 500.906C1206.19 500.906 1206.42 500.338 1206.42 499.827C1206.42 499.243 1206.14 498.687 1205.47 498.687C1204.75 498.687 1204.53 499.259 1204.53 499.76ZM1203.49 499.82C1203.49 498.703 1204.23 497.857 1205.47 497.857C1206.81 497.857 1207.45 498.777 1207.45 499.776C1207.45 500.884 1206.72 501.739 1205.47 501.739C1204.14 501.723 1203.49 500.826 1203.49 499.82Z" fill="white"/>
<path d="M1211.48 501.615H1210.39L1209.66 500.491L1208.96 501.615H1207.83L1209.12 499.798L1207.8 497.982H1208.92L1209.66 499.128L1210.38 497.982H1211.47L1210.18 499.776L1211.48 501.615Z" fill="white"/>
<path d="M1214.87 499.747C1214.87 499.141 1214.59 498.697 1213.97 498.697C1213.62 498.697 1213.25 498.844 1213.04 499.032V500.58C1213.31 500.807 1213.61 500.887 1213.97 500.887C1214.61 500.877 1214.87 500.36 1214.87 499.747ZM1213.05 503H1212.04V497.979H1212.91L1212.96 498.547C1213.22 498.087 1213.64 497.854 1214.21 497.854C1215.36 497.854 1215.91 498.687 1215.91 499.722C1215.91 500.788 1215.26 501.736 1214.1 501.736C1213.71 501.736 1213.34 501.605 1213.05 501.283V503H1213.05Z" fill="white"/>
<path d="M1218.86 500.044C1218.68 499.935 1218.45 499.878 1218.19 499.878C1217.67 499.878 1217.42 500.066 1217.42 500.469C1217.42 500.746 1217.62 500.957 1217.98 500.957C1218.31 500.957 1218.67 500.781 1218.86 500.462V500.044ZM1219.1 501.615L1219 501.11C1218.65 501.554 1218.26 501.694 1217.61 501.694C1216.84 501.694 1216.41 501.11 1216.41 500.491C1216.41 499.565 1217.14 499.214 1217.97 499.214C1218.26 499.214 1218.64 499.265 1218.86 499.351V499.22C1218.86 498.767 1218.47 498.665 1218.12 498.665C1217.53 498.665 1217.08 498.802 1216.81 498.943V498.068C1217.22 497.937 1217.7 497.857 1218.26 497.857C1219.13 497.857 1219.82 498.208 1219.82 499.345V501.615H1219.1Z" fill="white"/>
<path d="M1224.18 501.615H1223.17V500.191H1221.81V501.615H1220.8V497.982H1221.81V499.402H1223.17V497.982H1224.18V501.615Z" fill="white"/>
<path d="M1228.67 497.982H1229.68V501.615H1228.67V497.982ZM1226.16 500.861H1226.75C1227.21 500.861 1227.37 500.628 1227.37 500.357C1227.37 500.038 1227.12 499.881 1226.69 499.881C1226.49 499.881 1226.34 499.903 1226.16 499.955V500.861H1226.16ZM1225.15 497.982H1226.16V499.252C1226.42 499.179 1226.6 499.156 1226.83 499.156C1227.8 499.156 1228.35 499.667 1228.35 500.36C1228.35 501.113 1227.84 501.615 1226.91 501.615H1225.15V497.982H1225.15Z" fill="white"/>
<path d="M1235.69 498.799H1234.59V501.615H1233.58V498.799H1232.47V497.982H1235.69V498.799Z" fill="white"/>
<path d="M1239.2 499.747C1239.2 499.141 1238.92 498.697 1238.29 498.697C1237.94 498.697 1237.57 498.844 1237.37 499.032V500.58C1237.64 500.807 1237.94 500.887 1238.29 500.887C1238.93 500.877 1239.2 500.36 1239.2 499.747ZM1237.37 503H1236.37V497.979H1237.23L1237.28 498.547C1237.54 498.087 1237.97 497.854 1238.53 497.854C1239.69 497.854 1240.23 498.687 1240.23 499.722C1240.23 500.788 1239.59 501.736 1238.43 501.736C1238.03 501.736 1237.66 501.605 1237.38 501.283V503H1237.37Z" fill="white"/>
<path d="M1241.09 503L1242.04 501.241L1240.53 497.982H1241.63L1242.49 500.191L1243.31 497.982H1244.36L1242.12 503H1241.09Z" fill="white"/>
<path d="M1247.39 500.82V498.77H1246.34V498.888C1246.34 499.508 1246.28 500.223 1246.04 500.823H1247.39V500.82ZM1245.49 501.615V502.477H1244.63V500.82H1245.05C1245.37 500.149 1245.42 499.156 1245.42 498.259V497.982H1248.36V500.82H1248.9V502.477H1248.05V501.615H1245.49V501.615Z" fill="white"/>
<path d="M1251.92 500.044C1251.74 499.935 1251.51 499.878 1251.25 499.878C1250.73 499.878 1250.48 500.066 1250.48 500.469C1250.48 500.746 1250.68 500.957 1251.04 500.957C1251.37 500.957 1251.73 500.781 1251.92 500.462V500.044ZM1252.16 501.615L1252.06 501.11C1251.71 501.554 1251.32 501.694 1250.67 501.694C1249.9 501.694 1249.47 501.11 1249.47 500.491C1249.47 499.565 1250.2 499.214 1251.03 499.214C1251.33 499.214 1251.7 499.265 1251.92 499.351V499.22C1251.92 498.767 1251.53 498.665 1251.18 498.665C1250.59 498.665 1250.14 498.802 1249.87 498.943V498.068C1250.28 497.937 1250.76 497.857 1251.32 497.857C1252.19 497.857 1252.88 498.208 1252.88 499.345V501.615H1252.16Z" fill="white"/>
<path d="M561.182 441V431.314H567.018V441H568.837V429.627H559.371V441H561.182ZM570.885 436.57C570.885 437.845 571.289 438.987 572.054 439.857C572.818 440.736 574.102 441.299 575.657 441.308C577.116 441.308 578.276 440.851 579.138 439.945C579.99 439.04 580.421 437.88 580.421 436.465C580.421 435.19 580.017 434.048 579.252 433.169C578.487 432.299 577.213 431.736 575.657 431.728C574.198 431.728 573.038 432.185 572.177 433.09C571.315 433.995 570.885 435.155 570.885 436.57ZM572.81 436.43C572.81 435.647 572.994 434.944 573.416 434.312C573.838 433.679 574.629 433.274 575.657 433.274C577.661 433.274 578.496 434.927 578.496 436.605C578.496 438.064 577.819 439.761 575.657 439.761C574.682 439.761 573.917 439.356 573.478 438.715C573.038 438.082 572.81 437.3 572.81 436.43ZM581.133 443.127H582.715V441H589.948V443.127H591.53V439.453H590.133V432.035H583.269V432.483C583.269 435.357 583.031 437.695 582.188 439.453H581.133V443.127ZM583.919 439.453C584.613 438.003 584.965 436.236 584.965 434.145V433.564H588.349V439.453H583.919ZM595.318 444.419V440.262C596.188 440.956 597.234 441.308 598.456 441.308C599.801 441.308 600.952 440.728 601.664 439.813C602.376 438.899 602.771 437.669 602.771 436.324C602.771 435.023 602.438 433.907 601.787 433.063C601.137 432.229 600.056 431.728 598.72 431.728C597.076 431.728 595.811 432.36 594.923 433.617V432.035H593.464V444.419H595.318ZM595.301 435.006C595.617 434.505 596.03 434.109 596.54 433.837C597.05 433.564 597.577 433.424 598.113 433.424C599.95 433.424 600.847 434.566 600.847 436.395C600.847 438.126 600.056 439.603 598.113 439.629C597.006 439.629 596.065 439.304 595.301 438.662V435.006ZM604.248 436.57C604.248 437.845 604.652 438.987 605.417 439.857C606.182 440.736 607.465 441.299 609.021 441.308C610.479 441.308 611.64 440.851 612.501 439.945C613.354 439.04 613.784 437.88 613.784 436.465C613.784 435.19 613.38 434.048 612.615 433.169C611.851 432.299 610.576 431.736 609.021 431.728C607.562 431.728 606.401 432.185 605.54 433.09C604.679 433.995 604.248 435.155 604.248 436.57ZM606.173 436.43C606.173 435.647 606.357 434.944 606.779 434.312C607.201 433.679 607.992 433.274 609.021 433.274C611.024 433.274 611.859 434.927 611.859 436.605C611.859 438.064 611.183 439.761 609.021 439.761C608.045 439.761 607.28 439.356 606.841 438.715C606.401 438.082 606.173 437.3 606.173 436.43ZM615.428 436.157C615.428 437.177 615.604 438.064 615.955 438.829C616.658 440.35 618.188 441.308 620.358 441.308C621.237 441.308 622.02 441.105 622.714 440.701C624.085 439.893 624.841 438.469 624.841 436.843C624.841 435.7 624.489 434.777 623.777 434.065C623.065 433.362 622.16 433.011 621.062 433.011C619.4 433.011 618.1 433.556 617.142 434.646C617.247 433.978 617.493 433.397 617.783 432.958C617.933 432.738 618.108 432.536 618.328 432.352C618.759 431.974 619.154 431.736 619.726 431.499C620.288 431.262 620.728 431.13 621.378 430.98C621.703 430.901 621.984 430.84 622.23 430.787C622.688 430.699 623.514 430.532 623.927 430.436V428.687C622.327 428.959 621.009 429.284 619.963 429.653C618.917 430.031 618.056 430.506 617.361 431.095C616.667 431.684 616.166 432.378 615.876 433.187C615.577 434.004 615.428 434.988 615.428 436.157ZM617.177 436.465C617.555 435.885 618.056 435.437 618.68 435.111C619.304 434.786 619.91 434.628 620.508 434.628C622.099 434.628 623.021 435.357 623.021 436.913C623.021 437.722 622.775 438.381 622.283 438.899C621.791 439.418 621.088 439.682 620.165 439.682C619.154 439.682 618.39 439.33 617.933 438.724C617.476 438.126 617.238 437.388 617.177 436.465ZM628.611 441V437.273H633.059V441H634.931V432.035H633.059V435.762H628.611V432.035H626.739V441H628.611ZM636.82 436.482C636.82 437.854 637.216 439.014 638.016 439.893C638.815 440.78 640.16 441.308 641.856 441.308C642.419 441.308 642.999 441.255 643.588 441.158C644.177 441.062 644.651 440.912 645.029 440.728V439.198C644.177 439.576 643.228 439.761 642.182 439.761C641.373 439.761 640.67 439.603 640.02 439.251C639.369 438.899 638.895 438.231 638.763 437.344H645.671C645.724 436.808 645.75 436.377 645.75 436.052C645.75 434.848 645.425 433.828 644.757 433.02C644.089 432.211 642.938 431.728 641.461 431.728C640.257 431.728 639.114 432.176 638.244 432.958C637.374 433.74 636.82 435.006 636.82 436.482ZM638.728 435.92C638.824 434.268 639.835 433.274 641.461 433.274C642.182 433.274 642.771 433.503 643.228 433.969C643.685 434.435 643.913 435.085 643.913 435.92H638.728ZM647.279 436.482C647.279 437.854 647.675 439.014 648.475 439.893C649.274 440.78 650.619 441.308 652.315 441.308C652.878 441.308 653.458 441.255 654.047 441.158C654.636 441.062 655.11 440.912 655.488 440.728V439.198C654.636 439.576 653.687 439.761 652.641 439.761C651.832 439.761 651.129 439.603 650.479 439.251C649.828 438.899 649.354 438.231 649.222 437.344H656.13C656.183 436.808 656.209 436.377 656.209 436.052C656.209 434.848 655.884 433.828 655.216 433.02C654.548 432.211 653.396 431.728 651.92 431.728C650.716 431.728 649.573 432.176 648.703 432.958C647.833 433.74 647.279 435.006 647.279 436.482ZM649.187 435.92C649.283 434.268 650.294 433.274 651.92 433.274C652.641 433.274 653.229 433.503 653.687 433.969C654.144 434.435 654.372 435.085 654.372 435.92H649.187Z" fill="white"/>
</svg>
